<?xml version="1.0" encoding="utf-8"?>
<!-- Generator: Adobe Illustrator 19.0.0, SVG Export Plug-In . SVG Version: 6.00 Build 0)  -->
<svg version="1.1" id="Layer_1" xmlns="http://www.w3.org/2000/svg" xmlns:xlink="http://www.w3.org/1999/xlink" x="0px" y="0px"
	 viewBox="794 263.7 800 266.7" style="enable-background:new 794 263.7 800 266.7;" xml:space="preserve">
<style type="text/css">
	.st0{fill:none;}
	.st1{fill:#FFFFFF;}
	.st2{fill:#EEEEEE;}
	.st3{fill:#BDC3C7;}
	.st4{opacity:0.8;fill:url(#SVGID_2_);enable-background:new    ;}
	.st5{fill:#FFD401;}
	.st6{fill:#231F20;}
</style>
<pattern  x="444" y="647" width="144" height="83" patternUnits="userSpaceOnUse" id="SVGID_1_" viewBox="48 -124.5 144 83" style="overflow:visible;">
	<g>
		<polygon class="st0" points="48,-41.5 192,-41.5 192,-124.5 48,-124.5 		"/>
		<g>
			<polygon class="st0" points="48,-124.5 192,-124.5 192,-41.5 48,-41.5 			"/>
			<g>
				<polygon class="st0" points="48,-41.5 192,-41.5 192,-124.5 48,-124.5 				"/>
				<g>
					<polygon class="st0" points="48,-124.5 192,-124.5 192,-41.5 48,-41.5 					"/>
					<g>
						<polygon class="st0" points="48,-41.5 192,-41.5 192,-124.5 48,-124.5 						"/>
						<g>
							<polygon class="st0" points="48,-41.5 192,-41.5 192,-124.5 48,-124.5 							"/>
							<g>
								<polygon class="st1" points="168,-166 144,-124.5 168,-83 216,-83 240,-124.5 216,-166 								"/>
								<polygon class="st2" points="235.4,-124.5 213.7,-162 170.3,-162 148.6,-124.5 170.3,-87 213.7,-87 								"/>
								<polygon class="st3" points="213.7,-162 170.3,-162 148.6,-124.5 170.3,-87 								"/>
							</g>
							<g>
								<polygon class="st1" points="24,-166 0,-124.5 24,-83 72,-83 96,-124.5 72,-166 								"/>
								<polygon class="st2" points="91.4,-124.5 69.7,-162 26.3,-162 4.6,-124.5 26.3,-87 69.7,-87 								"/>
								<polygon class="st3" points="69.7,-162 26.3,-162 4.6,-124.5 26.3,-87 								"/>
							</g>
							<g>
								<polygon class="st1" points="168,-83 144,-41.5 168,0 216,0 240,-41.5 216,-83 								"/>
								<polygon class="st2" points="235.4,-41.5 213.7,-79 170.3,-79 148.6,-41.5 170.3,-4 213.7,-4 								"/>
								<polygon class="st3" points="213.7,-79 170.3,-79 148.6,-41.5 170.3,-4 								"/>
							</g>
							<g>
								<polygon class="st1" points="96,-124.5 72,-83 96,-41.5 144,-41.5 168,-83 144,-124.5 								"/>
								<polygon class="st2" points="163.4,-83 141.7,-120.5 98.3,-120.5 76.6,-83 98.3,-45.5 141.7,-45.5 								"/>
								<polygon class="st3" points="141.7,-120.5 98.3,-120.5 76.6,-83 98.3,-45.5 								"/>
							</g>
							<g>
								<polygon class="st1" points="24,-83 0,-41.5 24,0 72,0 96,-41.5 72,-83 								"/>
								<polygon class="st2" points="91.4,-41.5 69.7,-79 26.3,-79 4.6,-41.5 26.3,-4 69.7,-4 								"/>
								<polygon class="st3" points="69.7,-79 26.3,-79 4.6,-41.5 26.3,-4 								"/>
							</g>
						</g>
					</g>
				</g>
			</g>
		</g>
	</g>
</pattern>
<g id="Layer_2">
	<pattern  id="SVGID_2_" xlink:href="#SVGID_1_" patternTransform="matrix(1 0 0 -1 -492 -51913.6953)">
	</pattern>
	<rect x="794" y="263.1" class="st4" width="800" height="267"/>
</g>
<g id="Layer_1_1_">
	<g id="XMLID_3_">
		<g>
			<polygon class="st5" points="1461.6,277.2 1461.6,466.2 926.1,519.8 926.4,330.7 			"/>
		</g>
	</g>
	<g id="XMLID_1_">
		<g>
			<path class="st1" d="M1366.3,337.7v27.7l-2,0.2l-1.7-2.2c-1.1,1.3-2.4,2.2-3.9,2.8c-1.5,0.6-3,1-4.5,1.1c-1.4,0.1-2.8,0.1-4.3,0
				c-1.4-0.2-2.8-0.5-3.9-1.1c-1.1-0.6-2.1-1.3-2.8-2.3s-1.1-2.3-1.1-3.8v-31.1c0-2.1,0.4-3.9,1.1-5.4c0.8-1.5,1.7-2.7,2.8-3.7
				c1.1-0.9,2.4-1.7,3.9-2.2s2.9-0.9,4.3-1c1.4-0.2,2.9-0.1,4.3,0.1c1.4,0.2,2.7,0.6,3.9,1.2c1.1,0.6,2.1,1.5,2.8,2.6
				s1.1,2.6,1.1,4.3v1.1l-7.6,0.8c0-1.4-0.4-2.4-1.1-3c-0.8-0.6-1.9-0.8-3.4-0.6c-0.9,0.1-1.6,0.3-2.3,0.6s-1.1,0.7-1.4,1.2
				c-0.3,0.4-0.6,1-0.7,1.6s-0.2,1.2-0.2,1.8v28.1c0,0.6,0.1,1.2,0.2,1.8s0.4,1.1,0.7,1.4s0.8,0.7,1.4,0.9c0.6,0.2,1.3,0.3,2.3,0.1
				c0.9-0.1,1.6-0.3,2.3-0.6c0.6-0.3,1.1-0.7,1.4-1.2c0.3-0.4,0.6-1,0.7-1.6c0.1-0.6,0.2-1.2,0.2-1.8V345l-3.2,0.3v-6.4
				L1366.3,337.7z"/>
			<polygon class="st1" points="1334.6,319.8 1334.6,368.8 1326.5,369.7 1316.4,342.3 1316.4,370.8 1308.8,371.6 1308.8,322.6 
				1317.5,321.6 1327.1,351.8 1327.1,320.6 			"/>
			<polygon class="st1" points="1300.6,323.4 1300.6,372.5 1293,373.3 1293,324.2 			"/>
			<path class="st1" d="M1285.8,334.4v30.1c-0.2,1.5-0.6,2.9-1.3,4.1c-0.7,1.3-1.5,2.3-2.6,3.3c-1,0.9-2.2,1.7-3.5,2.3
				s-2.6,0.9-4.1,1.1l-10.6,1.1v-49l10.6-1.1c1.4-0.1,2.8-0.1,4.1,0.2c1.3,0.3,2.4,0.8,3.5,1.5c1,0.7,1.9,1.6,2.6,2.7
				C1285.2,331.7,1285.6,333,1285.8,334.4z M1278.3,363.6V337c0-0.6-0.1-1.2-0.2-1.8s-0.3-1.1-0.6-1.4c-0.3-0.4-0.7-0.8-1.2-0.9
				c-0.5-0.2-1.1-0.3-1.9-0.2l-3.1,0.3v36l3.1-0.3c1.4-0.2,2.4-0.8,3.1-1.8C1278,366,1278.3,364.8,1278.3,363.6z"/>
			<path class="st1" d="M1256.3,337v31.5c0,1.5-0.3,2.9-1,4.1c-0.7,1.3-1.5,2.3-2.6,3.3c-1.1,0.9-2.3,1.7-3.7,2.3
				c-1.4,0.6-2.8,0.9-4.2,1.1c-1.4,0.1-2.8,0.1-4.2-0.2c-1.4-0.3-2.6-0.8-3.7-1.4s-1.9-1.6-2.6-2.7c-0.7-1.1-1-2.4-1-3.9v-31.5
				c0-1.5,0.3-2.9,1-4.1c0.7-1.3,1.5-2.3,2.6-3.3c1.1-0.9,2.3-1.7,3.7-2.3c1.4-0.6,2.8-0.9,4.2-1.1c1.4-0.1,2.8-0.1,4.2,0.2
				c1.4,0.3,2.6,0.8,3.7,1.4c1.1,0.7,1.9,1.6,2.6,2.7C1256,334.2,1256.3,335.5,1256.3,337z M1248.7,367.5v-27.8
				c0-1.3-0.3-2.3-0.8-3.1c-0.6-0.8-1.6-1.2-3.1-1.1c-1.5,0.3-2.5,0.9-3.1,1.8c-0.6,0.9-0.8,2.1-0.8,3.3v27.8c0,1.3,0.3,2.3,0.8,3.1
				c0.6,0.8,1.6,1.2,3.1,1.1c1.5-0.3,2.5-0.9,3.1-1.8C1248.5,369.8,1248.7,368.7,1248.7,367.5z"/>
			<path class="st1" d="M1227.1,374.6v5.9c-0.1,0.1-0.4,0.2-0.8,0.3c-0.3,0.1-0.8,0.3-1.5,0.4c-0.7,0.1-1.6,0.3-2.7,0.4
				c-3,0.3-5.6-0.1-7.7-1.3c-2.1-1.2-3.8-2.9-5.1-5.1c-1.3-2.3-2.3-4.9-2.8-7.9c-0.6-3.1-0.9-6.3-0.9-9.7c0-3.9,0.4-7.5,1.4-10.6
				c0.9-3.1,2.1-5.8,3.5-8.1s3.1-4,4.9-5.3c1.9-1.3,3.8-2,5.8-2.2c1-0.1,2.1-0.1,3.3-0.1s2.1,0.1,2.7,0.3v6.3
				c-0.6-0.1-1.3-0.1-2.2-0.1c-0.9,0-1.6,0.1-2.1,0.1c-1.8,0.2-3.4,0.9-4.6,2.2c-1.3,1.3-2.3,2.8-3,4.6c-0.8,1.8-1.3,3.8-1.6,5.8
				c-0.3,2.1-0.5,4.1-0.5,5.9c0,2.7,0.2,5.3,0.6,7.6s1.1,4.4,1.9,6.2c0.9,1.8,1.9,3.1,3.2,4c1.3,0.9,2.8,1.3,4.6,1.1
				c0.5-0.1,1.1-0.1,1.9-0.3C1226,374.9,1226.6,374.8,1227.1,374.6z"/>
			<polygon class="st1" points="1185.7,335.7 1175.4,368.3 1175.4,385.9 1167.9,386.7 1167.9,369.1 1158,338.7 1165.6,337.9 
				1171.7,358.1 1178,336.5 			"/>
			<path class="st1" d="M1149.6,368.9l5.3,19.1l-7.9,0.9l-4.7-17.5l-3.4,0.4v18l-7.6,0.8v-49l11.2-1.2c1.4-0.1,2.8-0.1,4.1,0.2
				c1.4,0.3,2.6,0.8,3.7,1.4c1.1,0.7,1.9,1.6,2.6,2.7c0.7,1.1,1,2.4,1,3.9v12.1c0,1.5-0.4,2.9-1.3,4.4
				C1151.9,366.5,1150.8,367.7,1149.6,368.9z M1146.5,359.8v-8.6c0-0.6-0.1-1.2-0.2-1.8s-0.3-1.1-0.6-1.4c-0.3-0.4-0.7-0.8-1.3-0.9
				c-0.5-0.2-1.1-0.3-1.9-0.2l-3.6,0.4v18.1l3.6-0.4c1.4-0.1,2.4-0.8,3.1-1.8C1146.1,362.1,1146.5,361,1146.5,359.8z"/>
			<path class="st1" d="M1117.9,342.9l7.8,48.2l-7.6,0.8l-1.7-13.1l-8.6,0.9l-1.7,13.4l-7.6,0.8l7.8-49.9L1117.9,342.9z
				 M1115.4,372.5l-3.3-21.8l-3.2,22.5L1115.4,372.5z"/>
			<polygon class="st1" points="1092.9,345.6 1092.9,394.7 1085.4,395.5 1085.4,346.4 			"/>
			<path class="st1" d="M1079.1,356.6v12.1c-0.2,1.5-0.6,2.8-1.3,4.1c-0.7,1.3-1.6,2.3-2.6,3.3c-1.1,0.9-2.2,1.7-3.5,2.3
				c-1.3,0.6-2.6,0.9-4.1,1.1l-3.7,0.4v18l-7.6,0.8v-49l11.3-1.2c1.4-0.1,2.8-0.1,4.1,0.2c1.3,0.3,2.5,0.8,3.5,1.5
				c1.1,0.8,1.9,1.6,2.6,2.8C1078.5,353.9,1078.9,355.1,1079.1,356.6z M1071.5,367.8v-8.6c0-0.6-0.1-1.2-0.2-1.8
				c-0.1-0.6-0.4-1.1-0.7-1.4c-0.3-0.4-0.8-0.8-1.3-0.9c-0.5-0.3-1.1-0.3-1.9-0.2l-3.6,0.4v18.1l3.6-0.4c1.5-0.2,2.5-0.8,3.1-1.8
				C1071.2,370.1,1071.5,369,1071.5,367.8z"/>
			<path class="st1" d="M1042.9,351l7.8,48.2l-7.6,0.8l-1.7-13.1l-8.6,0.9l-1.7,13.4l-7.6,0.8l7.8-49.9L1042.9,351z M1040.4,380.6
				l-3.3-21.8l-3.2,22.5L1040.4,380.6z"/>
		</g>
	</g>
	<g id="XMLID_2_">
		<g>
			<polygon class="st6" points="1391.3,387.1 1391.3,409.2 1387.6,409.6 1383.1,397.2 1383.1,410.1 1379.6,410.4 1379.6,388.4 
				1383.6,387.9 1387.9,401.6 1387.9,387.5 			"/>
			<polygon class="st6" points="1376.4,407.9 1376.4,410.8 1368.4,411.6 1368.4,389.5 1376.4,388.7 1376.4,391.6 1371.8,392.1 
				1371.8,398.9 1375.6,398.5 1375.6,401.4 1371.8,401.8 1371.8,408.3 			"/>
			<polygon class="st6" points="1364.7,390 1364.7,412.1 1361.3,412.4 1361.3,399.4 1358,407.4 1357.1,407.4 1353.8,400.2 
				1353.8,413.2 1350.4,413.6 1350.4,391.5 1353.7,391.1 1357.6,400.9 1361.5,390.3 			"/>
			<path class="st6" d="M1347,395.8v14.1c0,0.7-0.1,1.3-0.4,1.9c-0.3,0.6-0.7,1.1-1.2,1.5c-0.5,0.4-1.1,0.8-1.6,1
				c-0.6,0.3-1.3,0.4-1.9,0.5c-0.6,0.1-1.3,0.1-1.9-0.1c-0.6-0.1-1.2-0.3-1.7-0.6c-0.5-0.3-0.9-0.8-1.2-1.2
				c-0.3-0.5-0.4-1.1-0.4-1.8V397c0-0.7,0.1-1.3,0.4-1.9c0.3-0.6,0.7-1.1,1.2-1.5c0.5-0.4,1.1-0.8,1.7-1c0.6-0.3,1.3-0.4,1.9-0.5
				s1.3-0.1,1.9,0.1s1.2,0.3,1.6,0.6c0.5,0.3,0.9,0.8,1.2,1.2C1346.9,394.5,1347,395.2,1347,395.8z M1343.6,409.6V397
				c0-0.6-0.1-1-0.4-1.4c-0.3-0.4-0.7-0.6-1.4-0.5c-0.7,0.1-1.1,0.4-1.4,0.8c-0.3,0.4-0.4,0.9-0.4,1.5V410c0,0.6,0.1,1,0.4,1.4
				c0.3,0.4,0.7,0.6,1.4,0.5c0.7-0.1,1.1-0.4,1.4-0.8C1343.5,410.6,1343.6,410.1,1343.6,409.6z"/>
			<polygon class="st6" points="1334.4,393.2 1331.2,415.6 1327.2,416.1 1325.2,403.6 1323.3,416.4 1319.2,416.9 1316,395.2 
				1319.3,394.8 1321.2,410.7 1323.7,394.4 1326.7,394 1329.2,409.8 1331,393.5 			"/>
			<polygon class="st6" points="1307.4,437.9 1313.6,448.3 1309.8,448.7 1304.3,439.6 1304.3,449.3 1301,449.7 1301,427.6 
				1304.3,427.2 1304.3,436.8 1309.3,426.7 1313.1,426.3 			"/>
			<path class="st6" d="M1305.2,409.5l2.4,8.6l-3.6,0.4l-2.1-7.8l-1.5,0.2v8.1l-3.4,0.4v-22.1l5.1-0.6c0.6-0.1,1.3-0.1,1.9,0.1
				c0.6,0.1,1.2,0.4,1.6,0.7c0.5,0.3,0.9,0.8,1.2,1.2c0.3,0.5,0.4,1.1,0.4,1.8v5.4c0,0.7-0.2,1.3-0.6,1.9
				C1306.2,408.4,1305.7,409,1305.2,409.5z M1303.8,405.4v-3.9c0-0.3-0.1-0.5-0.1-0.8c-0.1-0.3-0.2-0.5-0.3-0.7
				c-0.1-0.2-0.3-0.3-0.6-0.4c-0.3-0.1-0.5-0.1-0.8-0.1l-1.6,0.2v8.1l1.6-0.2c0.6-0.1,1.1-0.3,1.4-0.8
				C1303.6,406.5,1303.8,406,1303.8,405.4z"/>
			<polygon class="st6" points="1298.3,447 1298.3,450 1290.3,450.8 1290.3,428.7 1293.7,428.4 1293.7,447.5 			"/>
			<path class="st6" d="M1293.6,401.6v14.1c0,0.7-0.1,1.3-0.4,1.9s-0.7,1.1-1.2,1.5c-0.5,0.4-1.1,0.8-1.6,1
				c-0.6,0.3-1.3,0.4-1.9,0.5c-0.6,0.1-1.3,0.1-1.9-0.1c-0.6-0.1-1.2-0.3-1.6-0.7c-0.5-0.3-0.9-0.8-1.2-1.2
				c-0.3-0.5-0.4-1.1-0.4-1.8v-14.1c0-0.7,0.1-1.3,0.4-1.9s0.7-1.1,1.2-1.4c0.5-0.4,1-0.8,1.6-1c0.6-0.3,1.3-0.4,1.9-0.5
				c0.6-0.1,1.3-0.1,1.9,0.1c0.6,0.1,1.2,0.3,1.6,0.7c0.5,0.3,0.9,0.7,1.2,1.2C1293.4,400.3,1293.6,400.9,1293.6,401.6z
				 M1290.2,415.3v-12.5c0-0.6-0.1-1-0.4-1.4c-0.3-0.4-0.7-0.6-1.4-0.5c-0.7,0.1-1.1,0.4-1.4,0.8c-0.3,0.4-0.4,0.9-0.4,1.5v12.5
				c0,0.6,0.1,1,0.4,1.4c0.3,0.4,0.7,0.6,1.4,0.5c0.7-0.1,1.1-0.4,1.4-0.8C1290.1,416.3,1290.2,415.8,1290.2,415.3z"/>
			<path class="st6" d="M1286.9,433.1v14.1c0,0.7-0.1,1.3-0.4,1.9s-0.7,1.1-1.2,1.4c-0.5,0.4-1.1,0.8-1.6,1
				c-0.6,0.3-1.3,0.4-1.9,0.5c-0.6,0.1-1.3,0.1-1.9-0.1c-0.6-0.1-1.2-0.3-1.6-0.7c-0.5-0.3-0.9-0.7-1.2-1.2
				c-0.3-0.5-0.4-1.1-0.4-1.8v-14.1c0-0.7,0.1-1.3,0.4-1.9s0.7-1.1,1.2-1.4c0.5-0.4,1-0.8,1.6-1s1.3-0.4,1.9-0.5s1.3-0.1,1.9,0.1
				c0.6,0.1,1.2,0.3,1.6,0.7c0.5,0.3,0.9,0.7,1.2,1.2C1286.8,431.8,1286.9,432.4,1286.9,433.1z M1283.5,446.8v-12.5
				c0-0.6-0.1-1-0.4-1.4c-0.3-0.4-0.7-0.6-1.4-0.5c-0.7,0.1-1.1,0.4-1.4,0.8c-0.3,0.4-0.4,0.9-0.4,1.5v12.5c0,0.6,0.1,1,0.4,1.4
				c0.3,0.4,0.7,0.6,1.4,0.5c0.7-0.1,1.1-0.4,1.4-0.8S1283.5,447.3,1283.5,446.8z"/>
			<polygon class="st6" points="1280.7,398.9 1280.7,401.9 1276.1,402.4 1276.1,409.1 1279.9,408.7 1279.9,411.6 1276.1,412 
				1276.1,421.5 1272.7,421.9 1272.7,399.8 			"/>
			<polygon class="st6" points="1274.1,430.4 1274.1,433.4 1269.4,433.9 1269.4,440.6 1273.2,440.2 1273.2,443.1 1269.4,443.5 
				1269.4,453 1266.1,453.4 1266.1,431.3 			"/>
			<path class="st6" d="M1262.3,410.5V423l-0.9,0.1l-0.8-1c-0.5,0.6-1.1,1-1.8,1.3c-0.7,0.3-1.3,0.4-2,0.5c-0.6,0.1-1.3,0.1-1.9,0
				c-0.6-0.1-1.3-0.3-1.8-0.5s-0.9-0.6-1.3-1.1c-0.3-0.4-0.5-1-0.5-1.7v-13.9c0-0.9,0.2-1.8,0.5-2.4c0.3-0.7,0.8-1.2,1.3-1.6
				c0.5-0.4,1.1-0.8,1.8-1c0.7-0.3,1.3-0.4,1.9-0.4s1.3-0.1,1.9,0s1.3,0.3,1.8,0.6c0.5,0.3,0.9,0.7,1.3,1.2c0.3,0.5,0.5,1.1,0.5,1.9
				v0.5l-3.4,0.4c0-0.7-0.2-1.1-0.5-1.4c-0.3-0.3-0.8-0.3-1.5-0.3c-0.4,0.1-0.8,0.1-1,0.3c-0.3,0.1-0.5,0.3-0.6,0.5
				c-0.1,0.2-0.3,0.4-0.3,0.7c-0.1,0.3-0.1,0.5-0.1,0.8V419c0,0.3,0.1,0.5,0.1,0.8c0.1,0.3,0.2,0.5,0.3,0.6c0.2,0.2,0.4,0.3,0.6,0.4
				c0.3,0.1,0.6,0.1,1,0.1c0.4-0.1,0.8-0.1,1-0.3c0.3-0.1,0.5-0.3,0.6-0.5c0.2-0.2,0.3-0.4,0.3-0.7c0.1-0.3,0.1-0.6,0.1-0.8v-4.8
				l-1.4,0.2v-2.9L1262.3,410.5z"/>
			<polygon class="st6" points="1256.5,432.3 1251.9,447 1251.9,454.9 1248.5,455.3 1248.5,447.4 1244,433.7 1247.4,433.3 
				1250.2,442.5 1253,432.7 			"/>
			<polygon class="st6" points="1248,402.4 1248,424.5 1244.3,424.9 1239.8,412.6 1239.8,425.4 1236.4,425.8 1236.4,403.7 
				1240.3,403.2 1244.7,416.9 1244.7,402.8 			"/>
			<path class="st6" d="M1240.2,447.3l2.4,8.6l-3.6,0.4l-2.1-7.8l-1.5,0.2v8.1l-3.4,0.4V435l5.1-0.6c0.6-0.1,1.3-0.1,1.9,0.1
				c0.6,0.1,1.2,0.4,1.7,0.7s0.9,0.7,1.2,1.2c0.3,0.5,0.4,1.1,0.4,1.8v5.4c0,0.7-0.2,1.3-0.6,2
				C1241.3,446.1,1240.8,446.8,1240.2,447.3z M1238.8,443.1v-3.9c0-0.3,0-0.6-0.1-0.8c-0.1-0.3-0.2-0.5-0.3-0.7
				c-0.1-0.2-0.3-0.3-0.6-0.4c-0.3-0.1-0.5-0.1-0.8-0.1l-1.6,0.2v8.1l1.6-0.2c0.6-0.1,1.1-0.3,1.4-0.8
				C1238.7,444.2,1238.8,443.7,1238.8,443.1z"/>
			<polygon class="st6" points="1232.7,404.1 1232.7,426.1 1229.3,426.5 1229.3,404.4 			"/>
			<path class="st6" d="M1226,435.6l3.5,21.7l-3.4,0.4l-0.8-5.9l-3.9,0.4l-0.8,6.1l-3.4,0.4l3.5-22.5L1226,435.6z M1224.8,448.9
				l-1.5-9.8l-1.4,10.1L1224.8,448.9z"/>
			<polygon class="st6" points="1225.6,404.8 1225.6,426.9 1222,427.3 1217.5,414.9 1217.5,427.8 1214,428.1 1214,406.1 1218,405.6 
				1222.3,419.3 1222.3,405.2 			"/>
			<polygon class="st6" points="1214.8,436.8 1214.8,458.8 1211.1,459.3 1206.6,446.9 1206.6,459.7 1203.1,460.1 1203.1,438 
				1207.1,437.6 1211.4,451.2 1211.4,437.1 			"/>
			<path class="st6" d="M1208.8,419.8l2.4,8.6l-3.6,0.4l-2.1-7.8l-1.5,0.2v8l-3.4,0.4v-22.1l5.1-0.6c0.6-0.1,1.3-0.1,1.9,0.1
				c0.6,0.1,1.2,0.3,1.6,0.7c0.5,0.3,0.9,0.7,1.2,1.2c0.3,0.5,0.4,1.1,0.4,1.8v5.4c0,0.7-0.2,1.3-0.6,1.9
				C1209.8,418.8,1209.4,419.3,1208.8,419.8z M1207.4,415.7v-3.9c0-0.3,0-0.5-0.1-0.8c-0.1-0.3-0.2-0.4-0.3-0.7
				c-0.1-0.2-0.3-0.3-0.6-0.4c-0.3-0.1-0.5-0.1-0.8-0.1l-1.6,0.2v8.1l1.6-0.2c0.6-0.1,1.1-0.3,1.4-0.8
				C1207.3,416.8,1207.4,416.3,1207.4,415.7z"/>
			<polygon class="st6" points="1199.4,438.5 1199.4,460.5 1196.1,460.8 1196.1,438.8 			"/>
			<path class="st6" d="M1194.6,408.1l3.5,21.7l-3.4,0.4l-0.8-5.9l-3.9,0.4l-0.8,6.1l-3.4,0.4l3.5-22.5L1194.6,408.1z M1193.4,421.4
				l-1.5-9.8l-1.4,10.1L1193.4,421.4z"/>
			<path class="st6" d="M1193.1,444.1v0.9c0,0.6,0,1.1-0.1,1.7c-0.1,0.6-0.1,1.1-0.3,1.6c-0.1,0.5-0.3,0.9-0.5,1.4
				c-0.2,0.4-0.4,0.7-0.8,0.9c0.6,0.2,1.1,0.7,1.3,1.5c0.2,0.8,0.3,1.8,0.3,2.9c0,0.9-0.1,1.8-0.3,2.6c-0.2,0.8-0.5,1.5-0.9,2.1
				c-0.4,0.6-0.8,1.1-1.4,1.4c-0.6,0.4-1.1,0.6-1.8,0.6l-5.6,0.6v-22.1l5.1-0.6c0.6-0.1,1.3,0,1.9,0.2c0.6,0.2,1.1,0.4,1.6,0.8
				s0.8,0.9,1.1,1.4C1192.9,442.6,1193.1,443.3,1193.1,444.1z M1189.7,446.3v-0.9c0-0.3,0-0.6-0.1-0.9c-0.1-0.3-0.2-0.6-0.3-0.9
				c-0.1-0.3-0.3-0.5-0.6-0.7c-0.3-0.2-0.5-0.3-0.9-0.2l-1.5,0.2v6.8l1.5-0.2c0.4-0.1,0.6-0.2,0.9-0.4c0.3-0.2,0.4-0.5,0.6-0.8
				c0.1-0.3,0.3-0.6,0.3-1C1189.7,446.9,1189.7,446.6,1189.7,446.3z M1189.7,455.1c0-0.3,0-0.6-0.1-0.9c-0.1-0.3-0.2-0.6-0.3-0.9
				c-0.1-0.3-0.3-0.5-0.6-0.7s-0.5-0.3-0.9-0.2l-1.5,0.2v6.5l1.5-0.2c0.4-0.1,0.8-0.2,1-0.5c0.3-0.3,0.4-0.6,0.6-1
				c0.1-0.4,0.2-0.8,0.3-1.2C1189.7,455.8,1189.7,455.4,1189.7,455.1z"/>
			<polygon class="st6" points="1183.7,428.4 1183.7,431.4 1175.7,432.3 1175.7,410.2 1183.7,409.3 1183.7,412.2 1179.1,412.7 
				1179.1,419.5 1182.9,419.1 1182.9,422 1179.1,422.4 1179.1,428.9 			"/>
			<polygon class="st6" points="1178.8,453.7 1178.8,456.7 1170,457.6 1170,454.7 			"/>
			<polygon class="st6" points="1173.1,429.6 1173.1,432.5 1165.1,433.4 1165.1,411.3 1168.5,410.9 1168.5,430.1 			"/>
			<polygon class="st6" points="1165.7,442 1165.7,464.1 1162.1,464.5 1157.5,452.2 1157.5,465 1154.2,465.4 1154.2,443.3 
				1158.1,442.9 1162.3,456.5 1162.3,442.4 			"/>
			<polygon class="st6" points="1155.1,431.5 1155.1,434.5 1147.1,435.3 1147.1,413.2 1155.1,412.4 1155.1,415.3 1150.5,415.8 
				1150.5,422.6 1154.3,422.1 1154.3,425.1 1150.5,425.4 1150.5,432 			"/>
			<path class="st6" d="M1150.7,447.6v14.1c0,0.7-0.1,1.3-0.4,1.9s-0.7,1.1-1.2,1.4c-0.5,0.4-1.1,0.8-1.7,1s-1.3,0.4-1.9,0.5
				s-1.3,0.1-1.9-0.1c-0.6-0.1-1.2-0.3-1.6-0.7c-0.4-0.4-0.9-0.8-1.2-1.2c-0.3-0.5-0.4-1.1-0.4-1.8v-14.1c0-0.7,0.1-1.3,0.4-1.9
				s0.7-1.1,1.2-1.4c0.5-0.4,1-0.8,1.6-1s1.3-0.4,1.9-0.5c0.6-0.1,1.3-0.1,1.9,0.1c0.6,0.1,1.2,0.3,1.7,0.7c0.5,0.3,0.9,0.7,1.2,1.2
				C1150.6,446.4,1150.7,447,1150.7,447.6z M1147.3,461.3v-12.5c0-0.6-0.1-1-0.4-1.4c-0.3-0.4-0.7-0.6-1.4-0.5
				c-0.7,0.1-1.1,0.4-1.4,0.8c-0.3,0.4-0.4,0.9-0.4,1.5v12.5c0,0.6,0.1,1,0.4,1.4c0.3,0.4,0.7,0.6,1.4,0.5c0.7-0.1,1.1-0.4,1.4-0.8
				C1147.2,462.4,1147.3,461.9,1147.3,461.3z"/>
			<polygon class="st6" points="1144.6,413.5 1140.3,436 1135.9,436.5 1131.7,414.9 1135.3,414.5 1138.1,432 1141,413.9 			"/>
			<polygon class="st6" points="1137,445.1 1137,467.2 1133.4,467.6 1128.8,455.2 1128.8,468 1125.4,468.4 1125.4,446.3 1129.3,446 
				1133.6,459.5 1133.6,445.5 			"/>
			<polygon class="st6" points="1129.1,415.1 1129.1,437.2 1125.8,437.6 1125.8,415.5 			"/>
			<polygon class="st6" points="1122.6,415.8 1122.6,418.8 1119.7,419.1 1119.7,438.2 1116.3,438.6 1116.3,419.4 1113.4,419.8 
				1113.4,416.8 			"/>
			<path class="st6" d="M1115.4,451.7v13.6c-0.1,0.7-0.3,1.3-0.6,1.9c-0.3,0.6-0.7,1.1-1.1,1.4c-0.4,0.4-1,0.8-1.6,1
				c-0.6,0.3-1.2,0.4-1.8,0.5l-4.8,0.5v-22.1l4.8-0.5c0.6-0.1,1.3-0.1,1.8,0.1c0.6,0.1,1.1,0.4,1.6,0.7c0.4,0.3,0.9,0.8,1.1,1.3
				C1115.2,450.5,1115.4,451,1115.4,451.7z M1112.1,464.8v-11.9c0-0.3,0-0.5-0.1-0.8c-0.1-0.3-0.2-0.4-0.3-0.7
				c-0.1-0.2-0.3-0.3-0.6-0.4c-0.3-0.1-0.5-0.1-0.8-0.1l-1.4,0.1v16.2l1.4-0.1c0.6-0.1,1.1-0.3,1.4-0.8
				C1111.9,465.9,1112.1,465.4,1112.1,464.8z"/>
			<path class="st6" d="M1109.2,417.3l3.5,21.7l-3.4,0.4l-0.8-5.9l-3.9,0.4l-0.8,6.1l-3.4,0.4l3.5-22.5L1109.2,417.3z M1108,430.6
				l-1.5-9.8l-1.4,10.1L1108,430.6z"/>
			<polygon class="st6" points="1101.9,448.9 1101.9,470.9 1098.2,471.4 1093.7,459 1093.7,471.8 1090.2,472.2 1090.2,450.1 
				1094.2,449.7 1098.5,463.3 1098.5,449.2 			"/>
			<path class="st6" d="M1096.4,431.8l2.4,8.6l-3.6,0.4l-2.1-7.8l-1.5,0.2v8.1l-3.4,0.4v-22.1l5.1-0.6c0.6-0.1,1.3-0.1,1.9,0.1
				c0.6,0.1,1.2,0.3,1.7,0.7c0.5,0.3,0.9,0.7,1.2,1.2c0.3,0.5,0.4,1.1,0.4,1.8v5.4c0,0.7-0.2,1.3-0.6,1.9
				C1097.4,430.8,1096.9,431.3,1096.4,431.8z M1095,427.8v-3.9c0-0.3,0-0.5-0.1-0.8c-0.1-0.3-0.1-0.5-0.3-0.7
				c-0.1-0.2-0.3-0.3-0.6-0.4c-0.3-0.1-0.5-0.1-0.8-0.1l-1.6,0.2v8.1l1.6-0.2c0.6-0.1,1.1-0.3,1.4-0.8
				C1094.9,428.8,1095,428.3,1095,427.8z"/>
			<path class="st6" d="M1084.2,450.8l3.5,21.7l-3.4,0.4l-0.8-5.9l-3.9,0.4l-0.8,6.1l-3.4,0.4l3.5-22.5L1084.2,450.8z M1083.1,464.1
				l-1.5-9.8l-1.4,10.1L1083.1,464.1z"/>
			<path class="st6" d="M1084.8,423.9V438c0,0.7-0.1,1.3-0.4,1.9s-0.7,1.1-1.2,1.4c-0.5,0.4-1.1,0.8-1.6,1c-0.6,0.3-1.3,0.4-1.9,0.5
				c-0.6,0.1-1.3,0.1-1.9-0.1c-0.6-0.1-1.2-0.3-1.7-0.7c-0.5-0.3-0.9-0.7-1.2-1.2c-0.3-0.5-0.4-1.1-0.4-1.8V425
				c0-0.7,0.1-1.3,0.4-1.9s0.7-1.1,1.2-1.4c0.5-0.4,1.1-0.8,1.7-1c0.6-0.3,1.3-0.4,1.9-0.5s1.3-0.1,1.9,0.1s1.2,0.4,1.6,0.7
				c0.5,0.3,0.9,0.7,1.2,1.2C1084.6,422.6,1084.8,423.2,1084.8,423.9z M1081.3,437.6v-12.5c0-0.6-0.1-1-0.4-1.4
				c-0.3-0.4-0.7-0.6-1.4-0.5c-0.7,0.1-1.1,0.4-1.4,0.8c-0.3,0.4-0.4,0.9-0.4,1.5V438c0,0.6,0.1,1,0.4,1.4c0.3,0.4,0.7,0.6,1.4,0.5
				c0.7-0.1,1.1-0.4,1.4-0.8C1081.2,438.6,1081.3,438.1,1081.3,437.6z"/>
			<path class="st6" d="M1071.8,426.3v0.9c0,0.6,0,1.1-0.1,1.7c-0.1,0.6-0.1,1.1-0.3,1.6c-0.1,0.5-0.3,0.9-0.5,1.4
				c-0.2,0.4-0.4,0.7-0.8,0.9c0.6,0.2,1.1,0.7,1.3,1.5c0.2,0.8,0.3,1.8,0.3,2.9c0,0.9-0.1,1.8-0.3,2.6c-0.2,0.8-0.5,1.5-0.9,2.1
				c-0.4,0.6-0.8,1.1-1.4,1.4c-0.6,0.4-1.1,0.6-1.8,0.6l-5.6,0.6v-22.1l5.1-0.6c0.6-0.1,1.3,0,1.9,0.2c0.6,0.2,1.1,0.4,1.6,0.9
				c0.4,0.4,0.8,0.9,1.1,1.4C1071.6,424.8,1071.8,425.5,1071.8,426.3z M1068.4,428.4v-0.9c0-0.3,0-0.6-0.1-0.9
				c-0.1-0.3-0.2-0.6-0.3-0.9c-0.1-0.3-0.3-0.5-0.6-0.7c-0.3-0.2-0.5-0.3-0.9-0.2l-1.5,0.2v6.8l1.5-0.2c0.3-0.1,0.6-0.2,0.9-0.4
				c0.3-0.3,0.4-0.5,0.6-0.8c0.1-0.3,0.3-0.6,0.3-1C1068.4,429.1,1068.4,428.7,1068.4,428.4z M1068.4,437.3c0-0.3,0-0.6-0.1-0.9
				c-0.1-0.3-0.2-0.6-0.3-0.9s-0.3-0.5-0.6-0.7c-0.3-0.2-0.5-0.3-0.9-0.2l-1.5,0.2v6.5l1.5-0.2c0.4-0.1,0.8-0.2,1-0.5
				c0.3-0.3,0.4-0.6,0.5-1c0.1-0.4,0.2-0.8,0.3-1.2C1068.4,437.9,1068.4,437.6,1068.4,437.3z"/>
			<path class="st6" d="M1055.8,423l3.5,21.7l-3.4,0.4l-0.8-5.9l-3.9,0.4l-0.8,6.1l-3.4,0.4l3.5-22.5L1055.8,423z M1054.6,436.3
				l-1.5-9.8l-1.4,10.1L1054.6,436.3z"/>
			<polygon class="st6" points="1045,443.3 1045,446.2 1036.9,447.1 1036.9,425 1040.3,424.6 1040.3,443.8 			"/>
			<polygon class="st6" points="1034.3,444.4 1034.3,447.3 1026.3,448.2 1026.3,426.1 1029.7,425.8 1029.7,444.9 			"/>
			<path class="st6" d="M1022.9,430.5v14.1c0,0.7-0.1,1.3-0.4,1.9s-0.7,1.1-1.2,1.4c-0.5,0.4-1.1,0.8-1.6,1
				c-0.6,0.3-1.3,0.4-1.9,0.5c-0.6,0.1-1.3,0.1-1.9-0.1c-0.6-0.1-1.2-0.3-1.6-0.7c-0.5-0.3-0.9-0.8-1.2-1.2
				c-0.3-0.5-0.4-1.1-0.4-1.8v-14.1c0-0.7,0.1-1.3,0.4-1.9s0.7-1.1,1.2-1.4c0.5-0.4,1-0.8,1.6-1c0.6-0.3,1.3-0.4,1.9-0.5
				c0.6-0.1,1.3-0.1,1.9,0.1c0.6,0.1,1.2,0.3,1.6,0.7c0.5,0.3,0.9,0.7,1.2,1.2S1022.9,429.8,1022.9,430.5z M1019.5,444.2v-12.5
				c0-0.6-0.1-1-0.4-1.4c-0.3-0.4-0.7-0.6-1.4-0.5c-0.7,0.1-1.1,0.4-1.4,0.8c-0.3,0.4-0.4,0.9-0.4,1.5v12.5c0,0.6,0.1,1,0.4,1.4
				c0.3,0.4,0.7,0.6,1.4,0.5c0.7-0.1,1.1-0.4,1.4-0.8C1019.4,445.3,1019.5,444.8,1019.5,444.2z"/>
			<path class="st6" d="M1009.7,447.4v2.6c-0.1,0.1-0.2,0.1-0.3,0.2c-0.2,0.1-0.4,0.1-0.7,0.2c-0.3,0.1-0.7,0.1-1.3,0.2
				c-1.4,0.1-2.5-0.1-3.5-0.6c-0.9-0.5-1.7-1.3-2.3-2.3c-0.6-1-1-2.2-1.3-3.6c-0.3-1.4-0.4-2.8-0.4-4.4c0-1.8,0.2-3.4,0.6-4.8
				c0.4-1.4,0.9-2.6,1.6-3.6s1.4-1.8,2.3-2.4c0.8-0.6,1.7-0.9,2.6-1c0.4-0.1,0.9-0.1,1.5-0.1c0.5,0,0.9,0.1,1.2,0.1v2.9
				c-0.3,0-0.6-0.1-1,0c-0.4,0-0.7,0-0.9,0.1c-0.8,0.1-1.5,0.4-2.1,1s-1,1.3-1.4,2.1c-0.3,0.8-0.6,1.7-0.8,2.6
				c-0.1,0.9-0.3,1.8-0.3,2.6c0,1.2,0.1,2.4,0.3,3.4s0.5,2,0.9,2.8c0.4,0.8,0.9,1.4,1.4,1.8s1.3,0.6,2.1,0.5c0.3,0,0.5-0.1,0.8-0.1
				C1009.2,447.5,1009.5,447.5,1009.7,447.4z"/>
		</g>
	</g>
</g>
</svg>
