<svg xmlns="http://www.w3.org/2000/svg" xmlns:xlink="http://www.w3.org/1999/xlink" version="1.1" id="Layer_1" x="0" y="0" width="100%" height="560" viewBox="0 0 960 560" enable-background="new 0 0 960 560" xml:space="preserve"><g id="XMLID_3_"><polygon fill="#FFD401" points="628 222.79 19.68 283.66 20 68.9 627.99 8.06 "/></g><g id="XMLID_1_"><path fill="#FFFFFF" d="M519.8 76.82v31.49l-2.26 0.24 -1.89-2.49c-1.31 1.45-2.8 2.52-4.47 3.21s-3.38 1.12-5.13 1.31c-1.6 0.17-3.22 0.16-4.87-0.02 -1.65-0.19-3.13-0.59-4.44-1.2 -1.31-0.61-2.37-1.48-3.2-2.61 -0.82-1.12-1.23-2.53-1.23-4.23v-35.34c0-2.38 0.41-4.41 1.23-6.1 0.83-1.69 1.89-3.07 3.2-4.16 1.31-1.09 2.79-1.92 4.44-2.51 1.65-0.59 3.27-0.97 4.87-1.14 1.65-0.18 3.29-0.16 4.91 0.06 1.62 0.21 3.09 0.67 4.4 1.38s2.37 1.71 3.2 3c0.82 1.3 1.24 2.92 1.24 4.85v1.31l-8.66 0.93c0-1.65-0.42-2.78-1.27-3.39 -0.85-0.61-2.12-0.83-3.82-0.65 -1.02 0.11-1.87 0.35-2.54 0.71 -0.68 0.36-1.22 0.81-1.6 1.33 -0.39 0.53-0.66 1.13-0.8 1.8 -0.15 0.67-0.22 1.34-0.22 2.02v31.71c0 0.68 0.07 1.34 0.22 1.98 0.14 0.64 0.41 1.18 0.8 1.62 0.38 0.45 0.92 0.78 1.6 0.99 0.67 0.22 1.52 0.28 2.54 0.17 1.02-0.11 1.87-0.35 2.55-0.71 0.67-0.36 1.21-0.81 1.6-1.33 0.38-0.53 0.65-1.13 0.8-1.8 0.14-0.67 0.21-1.34 0.21-2.02v-12.15l-3.63 0.39v-7.35L519.8 76.82z"/><polygon fill="#FFFFFF" points="483.73 56.46 483.73 112.17 474.49 113.15 463.07 82.01 463.07 114.38 454.41 115.3 454.41 59.59 464.38 58.53 475.22 92.86 475.22 57.37 "/><polygon fill="#FFFFFF" points="445.11 60.59 445.11 116.3 436.52 117.21 436.52 61.5 "/><path fill="#FFFFFF" d="M428.31 73.07v34.26c-0.2 1.72-0.68 3.27-1.46 4.66 -0.77 1.4-1.74 2.63-2.91 3.7 -1.16 1.07-2.48 1.92-3.96 2.57 -1.48 0.64-3.02 1.05-4.62 1.22l-12 1.28v-55.71l12-1.28c1.6-0.17 3.14-0.09 4.62 0.23 1.48 0.33 2.8 0.89 3.96 1.69 1.17 0.79 2.14 1.82 2.91 3.07C427.63 70.01 428.11 71.45 428.31 73.07zM419.8 106.2v-30.18c0-0.68-0.07-1.34-0.22-1.98 -0.15-0.63-0.39-1.19-0.73-1.66 -0.34-0.48-0.8-0.83-1.38-1.06 -0.58-0.22-1.28-0.29-2.11-0.21l-3.49 0.38v40.94l3.49-0.37c1.65-0.18 2.8-0.85 3.46-2.01C419.47 108.89 419.8 107.61 419.8 106.2z"/><path fill="#FFFFFF" d="M394.78 76v35.71c0 1.7-0.38 3.26-1.13 4.67 -0.75 1.41-1.74 2.65-2.98 3.7 -1.23 1.05-2.63 1.91-4.18 2.56 -1.55 0.65-3.13 1.06-4.73 1.23s-3.19 0.1-4.76-0.22c-1.58-0.31-2.97-0.87-4.18-1.66 -1.22-0.79-2.2-1.81-2.95-3.07 -0.75-1.25-1.13-2.72-1.13-4.42v-35.71c0-1.7 0.38-3.25 1.13-4.67 0.75-1.41 1.73-2.64 2.95-3.69 1.21-1.05 2.6-1.91 4.18-2.56 1.57-0.65 3.16-1.07 4.76-1.24s3.18-0.09 4.73 0.23c1.55 0.31 2.95 0.87 4.18 1.66 1.24 0.79 2.23 1.81 2.98 3.06S394.78 74.31 394.78 76zM386.2 110.6v-31.64c0-1.41-0.32-2.59-0.95-3.54 -0.63-0.95-1.79-1.38-3.49-1.3 -1.7 0.28-2.86 0.96-3.49 2.05 -0.63 1.09-0.94 2.33-0.94 3.74v31.63c0 1.41 0.31 2.59 0.94 3.54s1.79 1.38 3.49 1.3c1.7-0.28 2.86-0.96 3.49-2.05C385.88 113.25 386.2 112 386.2 110.6z"/><path fill="#FFFFFF" d="M361.63 118.75v6.69c-0.15 0.11-0.44 0.24-0.88 0.39 -0.38 0.13-0.95 0.27-1.71 0.4 -0.75 0.13-1.78 0.26-3.09 0.4 -3.44 0.37-6.36-0.12-8.76-1.46 -2.4-1.35-4.34-3.3-5.82-5.85 -1.48-2.56-2.54-5.57-3.2-9.04 -0.65-3.47-0.98-7.15-0.98-11.02 0-4.51 0.51-8.54 1.53-12.1 1.02-3.55 2.35-6.6 4-9.15 1.65-2.55 3.52-4.55 5.63-5.99 2.11-1.43 4.28-2.27 6.51-2.51 1.17-0.12 2.4-0.17 3.71-0.14 1.31 0.03 2.33 0.13 3.06 0.29v7.2c-0.68-0.07-1.52-0.09-2.51-0.06 -1 0.03-1.78 0.08-2.37 0.15 -2.08 0.22-3.83 1.05-5.23 2.48 -1.41 1.44-2.55 3.18-3.42 5.24s-1.49 4.27-1.86 6.64c-0.36 2.36-0.54 4.59-0.54 6.67 0 3.06 0.24 5.94 0.73 8.65 0.48 2.71 1.21 5.05 2.18 7 0.97 1.96 2.18 3.47 3.63 4.52 1.46 1.06 3.18 1.48 5.17 1.27 0.58-0.06 1.28-0.15 2.11-0.26C360.33 119.05 361.03 118.91 361.63 118.75z"/><polygon fill="#FFFFFF" points="314.56 74.55 302.93 111.57 302.93 131.5 294.35 132.42 294.35 112.49 283.07 77.91 291.73 76.99 298.65 100.03 305.91 75.47 "/><path fill="#FFFFFF" d="M273.55 112.24l6.03 21.76 -9.02 0.96 -5.31-19.8 -3.85 0.42v20.36l-8.58 0.92v-55.71l12.73-1.36c1.6-0.17 3.17-0.1 4.72 0.22 1.55 0.32 2.95 0.87 4.18 1.66 1.24 0.79 2.23 1.81 2.99 3.06 0.75 1.26 1.12 2.73 1.12 4.43v13.74c0 1.7-0.48 3.35-1.45 4.96C276.15 109.47 274.95 110.93 273.55 112.24zM269.98 101.86v-9.82c0-0.68-0.07-1.34-0.22-1.98 -0.14-0.64-0.39-1.19-0.72-1.66 -0.34-0.48-0.8-0.83-1.39-1.06 -0.58-0.22-1.28-0.29-2.1-0.21l-4.15 0.45v20.51l4.15-0.45c1.64-0.17 2.8-0.83 3.45-1.97C269.65 104.54 269.98 103.27 269.98 101.86z"/><path fill="#FFFFFF" d="M237.63 82.77l8.8 54.77 -8.65 0.93 -1.9-14.85 -9.74 1.04 -1.89 15.25 -8.66 0.93 8.8-56.65L237.63 82.77zM234.71 116.39l-3.71-24.76 -3.64 25.55L234.71 116.39z"/><polygon fill="#FFFFFF" points="209.18 85.81 209.18 141.52 200.6 142.44 200.6 86.73 "/><path fill="#FFFFFF" d="M193.47 98.26v13.82c-0.19 1.67-0.67 3.21-1.45 4.62 -0.78 1.42-1.76 2.65-2.95 3.7 -1.18 1.05-2.52 1.91-4 2.57 -1.47 0.67-3.01 1.09-4.61 1.26l-4.22 0.45v20.37l-8.66 0.92v-55.71l12.88-1.37c1.6-0.17 3.14-0.1 4.61 0.23 1.48 0.33 2.82 0.9 4 1.72 1.19 0.82 2.17 1.85 2.95 3.1C192.8 95.19 193.28 96.63 193.47 98.26zM184.82 110.97v-9.75c0-0.68-0.07-1.34-0.22-1.98 -0.14-0.64-0.4-1.19-0.76-1.66 -0.37-0.47-0.84-0.83-1.42-1.09 -0.58-0.25-1.29-0.33-2.11-0.24l-4.07 0.43v20.51l4.07-0.43c1.7-0.18 2.87-0.86 3.53-2.02C184.49 113.58 184.82 112.32 184.82 110.97z"/><path fill="#FFFFFF" d="M152.38 91.89l8.81 54.77 -8.66 0.92 -1.89-14.85 -9.75 1.04 -1.89 15.26 -8.65 0.92 8.8-56.65L152.38 91.89zM149.48 125.51l-3.71-24.77 -3.64 25.55L149.48 125.51z"/></g><g id="XMLID_2_"><polygon fill="#231F20" points="548.12 132.95 548.12 158.02 543.96 158.47 538.82 144.45 538.82 159.02 534.93 159.43 534.93 134.36 539.41 133.88 544.29 149.33 544.29 133.36 "/><polygon fill="#231F20" points="531.23 156.49 531.23 159.83 522.13 160.8 522.13 135.73 531.23 134.76 531.23 138.06 525.96 138.63 525.96 146.32 530.28 145.86 530.28 149.16 525.96 149.62 525.96 157.05 "/><polygon fill="#231F20" points="517.94 136.18 517.94 161.25 514.08 161.66 514.08 146.87 510.35 155.94 509.3 156.05 505.57 147.78 505.57 162.57 501.71 162.98 501.71 137.91 505.47 137.51 509.83 148.66 514.28 136.57 "/><path fill="#231F20" d="M497.85 142.84v16.07c0 0.77-0.17 1.47-0.51 2.1 -0.34 0.64-0.78 1.19-1.34 1.67 -0.56 0.47-1.18 0.86-1.88 1.15s-1.41 0.48-2.13 0.55c-0.72 0.08-1.43 0.05-2.14-0.1 -0.71-0.14-1.34-0.39-1.89-0.74 -0.54-0.36-0.98-0.82-1.32-1.38 -0.34-0.57-0.51-1.23-0.51-1.99v-16.07c0-0.77 0.17-1.47 0.51-2.1 0.34-0.64 0.78-1.19 1.32-1.67 0.55-0.47 1.18-0.85 1.89-1.15 0.71-0.29 1.42-0.48 2.14-0.55 0.72-0.08 1.43-0.05 2.13 0.1 0.7 0.14 1.32 0.39 1.88 0.74 0.56 0.36 1 0.82 1.34 1.38C497.68 141.42 497.85 142.08 497.85 142.84zM493.99 158.41v-14.24c0-0.63-0.15-1.16-0.43-1.59 -0.28-0.43-0.81-0.62-1.57-0.58 -0.76 0.12-1.29 0.43-1.57 0.92 -0.28 0.49-0.43 1.05-0.43 1.68v14.24c0 0.63 0.15 1.16 0.43 1.59 0.28 0.43 0.81 0.62 1.57 0.58 0.76-0.12 1.29-0.43 1.57-0.92C493.84 159.6 493.99 159.04 493.99 158.41z"/><polygon fill="#231F20" points="483.58 139.85 479.95 165.31 475.27 165.81 473.07 151.65 470.88 166.28 466.2 166.78 462.57 142.1 466.43 141.69 468.53 159.72 471.37 141.16 474.78 140.79 477.62 158.75 479.72 140.27 "/><polygon fill="#231F20" points="452.88 190.64 459.88 202.46 455.56 202.92 449.37 192.62 449.37 203.58 445.51 203.99 445.51 178.92 449.37 178.51 449.37 189.38 455.07 177.9 459.29 177.45 "/><path fill="#231F20" d="M450.33 158.4l2.72 9.79 -4.06 0.43 -2.39-8.91 -1.74 0.19v9.16l-3.86 0.42v-25.07l5.73-0.62c0.72-0.07 1.43-0.04 2.13 0.1 0.7 0.15 1.32 0.4 1.88 0.75 0.56 0.36 1 0.82 1.34 1.38 0.34 0.56 0.51 1.23 0.51 1.99v6.19c0 0.76-0.22 1.5-0.66 2.23C451.5 157.15 450.96 157.81 450.33 158.4zM448.73 153.73v-4.42c0-0.31-0.04-0.6-0.1-0.89 -0.07-0.29-0.18-0.54-0.33-0.75 -0.15-0.22-0.36-0.37-0.62-0.48 -0.26-0.1-0.58-0.13-0.95-0.09l-1.87 0.2v9.23l1.87-0.2c0.74-0.08 1.26-0.38 1.55-0.89C448.58 154.93 448.73 154.36 448.73 153.73z"/><polygon fill="#231F20" points="442.53 200.97 442.53 204.31 433.4 205.29 433.4 180.22 437.27 179.81 437.27 201.54 "/><path fill="#231F20" d="M437.14 149.34v16.06c0 0.77-0.17 1.47-0.51 2.1 -0.33 0.64-0.78 1.2-1.34 1.67 -0.55 0.47-1.18 0.86-1.88 1.15 -0.7 0.29-1.41 0.48-2.13 0.55 -0.72 0.08-1.43 0.05-2.14-0.09 -0.71-0.15-1.34-0.39-1.88-0.75 -0.55-0.36-0.99-0.82-1.33-1.38 -0.34-0.57-0.51-1.23-0.51-1.99v-16.07c0-0.77 0.17-1.47 0.51-2.1 0.34-0.64 0.78-1.19 1.33-1.66 0.54-0.48 1.17-0.86 1.88-1.16 0.71-0.29 1.42-0.47 2.14-0.55 0.72-0.08 1.43-0.04 2.13 0.1 0.7 0.14 1.33 0.39 1.88 0.75 0.56 0.35 1.01 0.81 1.34 1.37C436.97 147.91 437.14 148.57 437.14 149.34zM433.28 164.9v-14.24c0-0.63-0.14-1.16-0.43-1.59 -0.28-0.42-0.8-0.62-1.57-0.58 -0.76 0.12-1.29 0.43-1.57 0.92 -0.28 0.49-0.42 1.05-0.42 1.68v14.24c0 0.63 0.14 1.16 0.42 1.59 0.28 0.43 0.81 0.62 1.57 0.58 0.77-0.12 1.29-0.43 1.57-0.92C433.14 166.09 433.28 165.53 433.28 164.9z"/><path fill="#231F20" d="M429.54 185.15v16.07c0 0.76-0.17 1.46-0.51 2.1 -0.33 0.63-0.78 1.19-1.34 1.66 -0.55 0.48-1.18 0.86-1.88 1.15 -0.7 0.29-1.41 0.48-2.13 0.56 -0.72 0.07-1.43 0.04-2.14-0.1 -0.71-0.14-1.34-0.39-1.88-0.75 -0.55-0.35-0.99-0.81-1.33-1.38 -0.34-0.56-0.51-1.23-0.51-1.99v-16.07c0-0.76 0.17-1.46 0.51-2.1 0.34-0.64 0.78-1.19 1.33-1.66 0.54-0.48 1.17-0.86 1.88-1.15 0.71-0.3 1.42-0.48 2.14-0.56 0.72-0.08 1.43-0.04 2.13 0.1 0.7 0.14 1.33 0.39 1.88 0.75 0.56 0.35 1.01 0.81 1.34 1.38C429.37 183.72 429.54 184.38 429.54 185.15zM425.68 200.71v-14.23c0-0.64-0.14-1.17-0.43-1.59 -0.28-0.43-0.8-0.63-1.57-0.59 -0.76 0.13-1.28 0.43-1.57 0.92 -0.28 0.49-0.42 1.05-0.42 1.68v14.24c0 0.63 0.14 1.16 0.42 1.59 0.29 0.43 0.81 0.62 1.57 0.59 0.77-0.13 1.29-0.44 1.57-0.92C425.54 201.91 425.68 201.35 425.68 200.71z"/><polygon fill="#231F20" points="422.54 146.38 422.54 149.69 417.28 150.25 417.28 157.94 421.6 157.48 421.6 160.78 417.28 161.24 417.28 172.01 413.45 172.42 413.45 147.35 "/><polygon fill="#231F20" points="414.95 182.19 414.95 185.5 409.68 186.06 409.68 193.75 414 193.29 414 196.6 409.68 197.06 409.68 207.83 405.85 208.23 405.85 183.17 "/><path fill="#231F20" d="M401.63 159.51v14.18l-1.01 0.1 -0.85-1.12c-0.59 0.66-1.26 1.14-2.02 1.45 -0.75 0.31-1.52 0.5-2.3 0.59 -0.72 0.07-1.45 0.07-2.2-0.01 -0.74-0.09-1.4-0.27-1.99-0.54 -0.59-0.28-1.07-0.67-1.44-1.18 -0.37-0.5-0.56-1.14-0.56-1.9v-15.9c0-1.07 0.19-1.99 0.56-2.75 0.37-0.76 0.85-1.38 1.44-1.87 0.59-0.49 1.25-0.86 1.99-1.13 0.75-0.26 1.48-0.44 2.2-0.51 0.74-0.08 1.47-0.07 2.21 0.02 0.73 0.1 1.39 0.31 1.98 0.63 0.59 0.31 1.06 0.77 1.44 1.35 0.37 0.58 0.55 1.31 0.55 2.18v0.59l-3.89 0.42c0-0.75-0.19-1.26-0.58-1.53 -0.38-0.28-0.95-0.37-1.71-0.29 -0.46 0.05-0.84 0.15-1.15 0.32 -0.3 0.16-0.54 0.36-0.72 0.6 -0.17 0.23-0.29 0.5-0.36 0.81 -0.06 0.3-0.1 0.6-0.1 0.91v14.27c0 0.3 0.04 0.6 0.1 0.88 0.07 0.29 0.19 0.54 0.36 0.74 0.18 0.19 0.42 0.34 0.72 0.44 0.31 0.1 0.69 0.12 1.15 0.08 0.45-0.05 0.84-0.16 1.14-0.32 0.31-0.17 0.55-0.37 0.72-0.6 0.18-0.24 0.3-0.51 0.36-0.81 0.07-0.3 0.1-0.61 0.1-0.91v-5.47l-1.64 0.18v-3.31L401.63 159.51z"/><polygon fill="#231F20" points="395.01 184.32 389.78 200.99 389.78 209.95 385.92 210.37 385.92 201.4 380.84 185.84 384.74 185.42 387.85 195.79 391.12 184.74 "/><polygon fill="#231F20" points="385.4 150.35 385.4 175.42 381.24 175.87 376.11 161.85 376.11 176.41 372.21 176.83 372.21 151.76 376.69 151.28 381.57 166.73 381.57 150.76 "/><path fill="#231F20" d="M376.56 201.29l2.71 9.79 -4.06 0.43 -2.38-8.91 -1.74 0.19v9.16l-3.86 0.41v-25.07l5.73-0.61c0.72-0.07 1.43-0.04 2.12 0.1 0.7 0.15 1.33 0.4 1.89 0.75 0.55 0.36 1 0.81 1.34 1.38 0.34 0.56 0.51 1.23 0.51 1.99v6.18c0 0.77-0.22 1.51-0.66 2.24C377.72 200.04 377.19 200.7 376.56 201.29zM374.95 196.61v-4.41c0-0.31-0.03-0.61-0.09-0.89 -0.07-0.29-0.18-0.54-0.33-0.75 -0.16-0.22-0.36-0.37-0.62-0.48 -0.27-0.1-0.58-0.13-0.95-0.09l-1.87 0.2v9.23l1.87-0.2c0.74-0.08 1.26-0.38 1.55-0.89C374.81 197.82 374.95 197.25 374.95 196.61z"/><polygon fill="#231F20" points="368.02 152.21 368.02 177.28 364.16 177.69 364.16 152.62 "/><path fill="#231F20" d="M360.39 188.03l3.96 24.64 -3.9 0.42 -0.85-6.69 -4.38 0.47 -0.85 6.87 -3.9 0.42 3.96-25.5L360.39 188.03zM359.08 203.16l-1.67-11.15 -1.63 11.5L359.08 203.16z"/><polygon fill="#231F20" points="359.97 153.07 359.97 178.14 355.81 178.58 350.68 164.57 350.68 179.13 346.78 179.55 346.78 154.48 351.27 154 356.14 169.45 356.14 153.48 "/><polygon fill="#231F20" points="347.59 189.39 347.59 214.46 343.44 214.91 338.3 200.89 338.3 215.46 334.4 215.87 334.4 190.8 338.89 190.33 343.76 205.77 343.76 189.8 "/><path fill="#231F20" d="M340.86 170.1l2.71 9.79 -4.05 0.44 -2.39-8.91 -1.74 0.18v9.17l-3.86 0.41v-25.07l5.73-0.61c0.72-0.08 1.43-0.04 2.13 0.1 0.69 0.14 1.32 0.39 1.88 0.75 0.55 0.35 1 0.81 1.34 1.38 0.34 0.56 0.51 1.22 0.51 1.99v6.18c0 0.77-0.22 1.51-0.66 2.23C342.03 168.86 341.49 169.51 340.86 170.1zM339.25 165.43v-4.42c0-0.3-0.03-0.6-0.09-0.89 -0.07-0.28-0.18-0.53-0.33-0.75 -0.15-0.21-0.36-0.37-0.62-0.47 -0.26-0.1-0.58-0.13-0.95-0.09l-1.87 0.19v9.23l1.87-0.2c0.74-0.08 1.26-0.37 1.55-0.88C339.11 166.64 339.25 166.06 339.25 165.43z"/><polygon fill="#231F20" points="330.22 191.25 330.22 216.32 326.35 216.73 326.35 191.67 "/><path fill="#231F20" d="M324.69 156.84l3.96 24.65 -3.89 0.42 -0.85-6.69 -4.39 0.47 -0.85 6.87 -3.89 0.41 3.96-25.49L324.69 156.84zM323.38 171.97l-1.67-11.14 -1.63 11.5L323.38 171.97z"/><path fill="#231F20" d="M322.98 197.66v1.01c0 0.61-0.03 1.24-0.08 1.89 -0.05 0.65-0.15 1.26-0.28 1.83 -0.13 0.57-0.31 1.08-0.54 1.53 -0.23 0.45-0.53 0.79-0.9 1.03 0.72 0.23 1.2 0.79 1.44 1.69 0.24 0.91 0.36 2.01 0.36 3.32 0 1.09-0.12 2.09-0.36 2.98 -0.24 0.9-0.57 1.69-1 2.35 -0.42 0.67-0.94 1.21-1.55 1.61 -0.61 0.4-1.29 0.64-2.03 0.72l-6.41 0.69v-25.07l5.76-0.62c0.74-0.07 1.45-0.01 2.12 0.19 0.68 0.2 1.27 0.52 1.77 0.95 0.5 0.44 0.91 0.99 1.21 1.64C322.8 196.06 322.96 196.81 322.98 197.66zM319.15 200.13v-0.99c0-0.34-0.03-0.71-0.09-1.1 -0.07-0.38-0.19-0.74-0.35-1.06 -0.16-0.32-0.37-0.58-0.62-0.78s-0.57-0.28-0.97-0.24l-1.67 0.18v7.72l1.67-0.18c0.4-0.04 0.72-0.18 0.97-0.43 0.25-0.24 0.46-0.54 0.62-0.88 0.16-0.35 0.28-0.72 0.35-1.12C319.12 200.85 319.15 200.48 319.15 200.13zM319.15 210.17c0-0.34-0.03-0.71-0.09-1.1 -0.07-0.38-0.19-0.74-0.35-1.06 -0.16-0.32-0.37-0.58-0.62-0.78 -0.25-0.2-0.57-0.28-0.97-0.24l-1.67 0.18v7.39l1.67-0.18c0.48-0.05 0.86-0.23 1.13-0.54 0.28-0.32 0.48-0.69 0.61-1.11 0.13-0.43 0.21-0.88 0.25-1.34C319.14 210.93 319.15 210.52 319.15 210.17z"/><polygon fill="#231F20" points="312.39 179.89 312.39 183.23 303.29 184.2 303.29 159.13 312.39 158.16 312.39 161.46 307.12 162.03 307.12 169.72 311.44 169.26 311.44 172.56 307.12 173.02 307.12 180.45 "/><polygon fill="#231F20" points="306.77 208.62 306.77 211.95 296.77 213.03 296.77 209.69 "/><polygon fill="#231F20" points="300.31 181.18 300.31 184.52 291.18 185.5 291.18 160.43 295.04 160.01 295.04 181.74 "/><polygon fill="#231F20" points="291.92 195.35 291.92 220.42 287.77 220.86 282.63 206.85 282.63 221.41 278.74 221.83 278.74 196.76 283.21 196.28 288.1 211.73 288.1 195.76 "/><polygon fill="#231F20" points="279.86 183.37 279.86 186.71 270.76 187.68 270.76 162.61 279.86 161.64 279.86 164.94 274.58 165.51 274.58 173.2 278.9 172.74 278.9 176.04 274.58 176.5 274.58 183.93 "/><path fill="#231F20" d="M274.87 201.69v16.07c0 0.76-0.17 1.46-0.5 2.1 -0.34 0.63-0.79 1.19-1.34 1.66 -0.56 0.47-1.19 0.86-1.89 1.15 -0.69 0.29-1.4 0.48-2.12 0.56 -0.72 0.07-1.44 0.04-2.15-0.1 -0.71-0.14-1.34-0.39-1.88-0.75 -0.54-0.36-0.99-0.82-1.33-1.38 -0.33-0.56-0.5-1.23-0.5-1.99v-16.07c0-0.76 0.17-1.46 0.5-2.1 0.34-0.64 0.79-1.19 1.33-1.66 0.54-0.48 1.17-0.86 1.88-1.15 0.71-0.3 1.43-0.48 2.15-0.56 0.72-0.08 1.43-0.04 2.12 0.1 0.7 0.14 1.33 0.39 1.89 0.75 0.55 0.35 1 0.81 1.34 1.38C274.7 200.26 274.87 200.92 274.87 201.69zM271.01 217.25v-14.23c0-0.64-0.14-1.17-0.42-1.59 -0.29-0.43-0.81-0.63-1.57-0.59 -0.77 0.13-1.29 0.43-1.57 0.92 -0.29 0.49-0.43 1.05-0.43 1.68v14.24c0 0.63 0.14 1.16 0.43 1.59 0.28 0.43 0.8 0.62 1.57 0.58 0.76-0.12 1.28-0.43 1.57-0.92C270.87 218.45 271.01 217.89 271.01 217.25z"/><polygon fill="#231F20" points="267.88 162.92 263.07 188.5 258.02 189.04 253.22 164.49 257.33 164.05 260.55 183.96 263.75 163.36 "/><polygon fill="#231F20" points="259.3 198.84 259.3 223.91 255.14 224.35 250 210.34 250 224.9 246.11 225.32 246.11 200.25 250.59 199.77 255.47 215.22 255.47 199.25 "/><polygon fill="#231F20" points="250.34 164.79 250.34 189.86 246.47 190.28 246.47 165.21 "/><polygon fill="#231F20" points="242.94 165.58 242.94 168.89 239.64 169.24 239.64 191.01 235.81 191.42 235.81 169.65 232.53 170 232.53 166.7 "/><path fill="#231F20" d="M234.78 206.27v15.41c-0.08 0.78-0.3 1.48-0.65 2.1 -0.35 0.63-0.79 1.18-1.31 1.66 -0.52 0.49-1.12 0.87-1.78 1.16 -0.67 0.29-1.36 0.47-2.08 0.55l-5.4 0.58v-25.07l5.4-0.58c0.72-0.08 1.41-0.04 2.08 0.11 0.66 0.14 1.26 0.4 1.78 0.75 0.52 0.36 0.96 0.82 1.31 1.39C234.48 204.89 234.7 205.54 234.78 206.27zM230.95 221.18v-13.59c0-0.3-0.03-0.6-0.09-0.89 -0.07-0.28-0.18-0.53-0.33-0.75 -0.15-0.21-0.36-0.37-0.62-0.47 -0.26-0.1-0.58-0.13-0.95-0.09l-1.57 0.16v18.43l1.57-0.17c0.74-0.08 1.26-0.38 1.55-0.9C230.81 222.39 230.95 221.81 230.95 221.18z"/><path fill="#231F20" d="M227.66 167.22l3.96 24.65 -3.9 0.41 -0.85-6.68 -4.38 0.47 -0.85 6.86 -3.9 0.42 3.96-25.49L227.66 167.22zM226.35 182.35l-1.67-11.15 -1.64 11.5L226.35 182.35z"/><polygon fill="#231F20" points="219.37 203.11 219.37 228.17 215.21 228.62 210.07 214.6 210.07 229.17 206.18 229.58 206.18 204.52 210.66 204.04 215.54 219.49 215.54 203.51 "/><path fill="#231F20" d="M213.13 183.76l2.71 9.79 -4.06 0.44 -2.38-8.91 -1.74 0.18v9.17l-3.86 0.41v-25.07l5.73-0.61c0.72-0.08 1.43-0.05 2.12 0.1 0.7 0.14 1.33 0.39 1.89 0.75 0.55 0.35 1 0.81 1.34 1.37 0.34 0.57 0.5 1.23 0.5 2v6.18c0 0.76-0.21 1.51-0.65 2.23C214.29 182.51 213.76 183.17 213.13 183.76zM211.52 179.09v-4.42c0-0.3-0.03-0.6-0.1-0.89 -0.06-0.29-0.17-0.54-0.32-0.75 -0.15-0.21-0.36-0.37-0.62-0.47 -0.27-0.1-0.58-0.14-0.95-0.1l-1.87 0.2v9.23l1.87-0.2c0.74-0.08 1.26-0.37 1.55-0.88C211.38 180.3 211.52 179.72 211.52 179.09z"/><path fill="#231F20" d="M199.34 205.25l3.96 24.64 -3.89 0.42 -0.86-6.68 -4.38 0.46 -0.85 6.87 -3.9 0.42 3.96-25.5L199.34 205.25zM198.03 220.38l-1.67-11.15 -1.63 11.5L198.03 220.38z"/><path fill="#231F20" d="M196.21 195.68c-0.7 0.3-1.41 0.48-2.13 0.56 -0.72 0.08-1.44 0.04-2.14-0.1 -0.71-0.14-1.34-0.39-1.89-0.75 -0.54-0.35-0.98-0.81-1.32-1.38 -0.34-0.56-0.51-1.22-0.51-1.99v-16.07c0-0.76 0.17-1.46 0.51-2.1 0.34-0.63 0.78-1.19 1.32-1.66 0.55-0.47 1.18-0.86 1.89-1.15 0.7-0.29 1.42-0.48 2.14-0.56 0.72-0.07 1.43-0.04 2.13 0.1 0.69 0.15 1.32 0.4 1.88 0.75 0.56 0.36 1 0.81 1.34 1.38 0.34 0.56 0.51 1.23 0.51 1.99v16.07c0 0.76-0.17 1.46-0.51 2.1 -0.34 0.64-0.78 1.19-1.34 1.66C197.53 195.01 196.9 195.39 196.21 195.68zM196.08 190.27v-14.24c0-0.63-0.15-1.16-0.43-1.59 -0.28-0.43-0.81-0.62-1.57-0.59 -0.76 0.13-1.29 0.44-1.57 0.92 -0.29 0.49-0.43 1.05-0.43 1.69v14.23c0 0.64 0.14 1.17 0.43 1.59 0.28 0.43 0.81 0.63 1.57 0.59 0.76-0.13 1.29-0.43 1.57-0.92C195.93 191.46 196.08 190.9 196.08 190.27z"/><path fill="#231F20" d="M185.18 177.39v1.02c0 0.61-0.03 1.24-0.08 1.89 -0.06 0.65-0.15 1.26-0.28 1.83 -0.13 0.57-0.31 1.08-0.54 1.53s-0.53 0.79-0.9 1.02c0.72 0.23 1.2 0.8 1.44 1.7 0.24 0.9 0.36 2.01 0.36 3.32 0 1.09-0.12 2.08-0.36 2.98s-0.57 1.68-1 2.35 -0.94 1.2-1.55 1.61c-0.62 0.4-1.29 0.64-2.03 0.72l-6.42 0.69v-25.07l5.76-0.62c0.74-0.08 1.45-0.02 2.13 0.18 0.67 0.2 1.26 0.52 1.77 0.96 0.5 0.44 0.9 0.98 1.21 1.64C184.99 175.79 185.16 176.54 185.18 177.39zM181.35 179.86v-0.98c0-0.35-0.03-0.72-0.1-1.1 -0.06-0.39-0.18-0.74-0.34-1.06 -0.17-0.32-0.37-0.58-0.62-0.79 -0.26-0.2-0.58-0.28-0.97-0.24l-1.67 0.18v7.73l1.67-0.18c0.39-0.04 0.71-0.19 0.97-0.43 0.25-0.25 0.45-0.54 0.62-0.89 0.16-0.34 0.28-0.71 0.34-1.11C181.32 180.59 181.35 180.21 181.35 179.86zM181.35 189.91c0-0.35-0.03-0.72-0.1-1.1 -0.06-0.39-0.18-0.74-0.34-1.06 -0.17-0.32-0.37-0.58-0.62-0.79 -0.26-0.2-0.58-0.28-0.97-0.24l-1.67 0.18v7.4l1.67-0.18c0.48-0.05 0.86-0.23 1.13-0.55 0.27-0.31 0.47-0.68 0.6-1.11 0.14-0.43 0.22-0.87 0.25-1.33C181.33 190.66 181.35 190.26 181.35 189.91z"/><path fill="#231F20" d="M166.98 173.71l3.96 24.64 -3.89 0.42 -0.85-6.68 -4.39 0.47 -0.85 6.86 -3.89 0.42 3.96-25.5L166.98 173.71zM165.67 188.84l-1.67-11.15 -1.63 11.5L165.67 188.84z"/><polygon fill="#231F20" points="154.74 196.75 154.74 200.09 145.6 201.06 145.6 175.99 149.47 175.58 149.47 197.31 "/><polygon fill="#231F20" points="142.63 198.04 142.63 201.38 133.5 202.36 133.5 177.29 137.37 176.87 137.37 198.61 "/><path fill="#231F20" d="M129.64 182.22v16.07c0 0.76-0.17 1.46-0.51 2.1 -0.33 0.63-0.78 1.19-1.34 1.66 -0.55 0.47-1.18 0.86-1.88 1.15 -0.7 0.29-1.41 0.48-2.13 0.56 -0.72 0.07-1.43 0.04-2.14-0.1s-1.34-0.39-1.88-0.75c-0.55-0.36-0.99-0.82-1.33-1.38 -0.34-0.56-0.5-1.23-0.5-1.99v-16.07c0-0.76 0.16-1.46 0.5-2.1 0.34-0.64 0.78-1.19 1.33-1.66 0.54-0.48 1.17-0.86 1.88-1.15 0.71-0.3 1.42-0.48 2.14-0.56 0.72-0.08 1.43-0.04 2.13 0.1 0.7 0.14 1.33 0.39 1.88 0.75 0.56 0.35 1.01 0.81 1.34 1.38C129.47 180.79 129.64 181.45 129.64 182.22zM125.78 197.78v-14.23c0-0.64-0.14-1.17-0.43-1.6 -0.28-0.42-0.8-0.62-1.57-0.58 -0.76 0.13-1.28 0.43-1.57 0.92 -0.28 0.49-0.42 1.05-0.42 1.68v14.24c0 0.63 0.14 1.16 0.42 1.59 0.29 0.43 0.81 0.62 1.57 0.58 0.77-0.12 1.29-0.43 1.57-0.92C125.64 198.98 125.78 198.42 125.78 197.78z"/><path fill="#231F20" d="M114.72 201.45v3.01c-0.07 0.05-0.2 0.11-0.39 0.18 -0.18 0.06-0.44 0.12-0.77 0.18 -0.34 0.05-0.81 0.12-1.39 0.18 -1.55 0.16-2.87-0.06-3.95-0.66 -1.08-0.6-1.95-1.48-2.62-2.63 -0.66-1.15-1.14-2.51-1.44-4.07 -0.29-1.56-0.44-3.22-0.44-4.96 0-2.03 0.23-3.84 0.69-5.44s1.06-2.97 1.8-4.12c0.74-1.15 1.59-2.05 2.54-2.69 0.94-0.65 1.92-1.03 2.92-1.14 0.53-0.05 1.08-0.07 1.67-0.06 0.59 0.01 1.05 0.06 1.38 0.13v3.24c-0.31-0.03-0.68-0.04-1.13-0.02 -0.45 0.01-0.8 0.03-1.06 0.06 -0.94 0.1-1.73 0.47-2.36 1.12 -0.63 0.64-1.15 1.43-1.54 2.36 -0.39 0.92-0.67 1.92-0.83 2.98 -0.17 1.07-0.25 2.07-0.25 3.01 0 1.37 0.11 2.67 0.33 3.89 0.22 1.22 0.54 2.27 0.98 3.15 0.44 0.88 0.98 1.56 1.64 2.03 0.65 0.48 1.43 0.67 2.32 0.57 0.26-0.02 0.58-0.06 0.95-0.11C114.14 201.59 114.46 201.52 114.72 201.45z"/></g></svg>