<?xml version="1.0" encoding="utf-8"?>
<!-- Generator: Adobe Illustrator 19.0.0, SVG Export Plug-In . SVG Version: 6.00 Build 0)  -->
<svg version="1.1" xmlns="http://www.w3.org/2000/svg" xmlns:xlink="http://www.w3.org/1999/xlink" x="0px" y="0px"
	 viewBox="-142.4 146.9 1500 500" style="enable-background:new -142.4 146.9 1500 500;" xml:space="preserve">
<style type="text/css">
	.st0{fill:none;}
	.st1{fill:#FFFFFF;}
	.st2{fill:#EEEEEE;}
	.st3{fill:#BDC3C7;}
	.st4{opacity:0.8;fill:url(#SVGID_1_);enable-background:new    ;}
	.st5{fill:#FFD401;}
	.st6{fill:#231F20;}
</style>
<pattern  x="151" y="604" width="144" height="83" patternUnits="userSpaceOnUse" id="SVGID_2_" viewBox="48 -124.5 144 83" style="overflow:visible;">
	<g>
		<polygon class="st0" points="48,-41.5 192,-41.5 192,-124.5 48,-124.5 		"/>
		<g>
			<polygon class="st0" points="48,-124.5 192,-124.5 192,-41.5 48,-41.5 			"/>
			<g>
				<polygon class="st0" points="48,-41.5 192,-41.5 192,-124.5 48,-124.5 				"/>
				<g>
					<polygon class="st0" points="48,-124.5 192,-124.5 192,-41.5 48,-41.5 					"/>
					<g>
						<polygon class="st0" points="48,-124.5 192,-124.5 192,-41.5 48,-41.5 						"/>
						<g>
							<polygon class="st1" points="168,0 144,-41.5 168,-83 216,-83 240,-41.5 216,0 							"/>
							<polygon class="st2" points="235.4,-41.5 213.7,-4 170.3,-4 148.6,-41.5 170.3,-79 213.7,-79 							"/>
							<polygon class="st3" points="213.7,-4 170.3,-4 148.6,-41.5 170.3,-79 							"/>
						</g>
						<g>
							<polygon class="st1" points="24,0 0,-41.5 24,-83 72,-83 96,-41.5 72,0 							"/>
							<polygon class="st2" points="91.4,-41.5 69.7,-4 26.3,-4 4.6,-41.5 26.3,-79 69.7,-79 							"/>
							<polygon class="st3" points="69.7,-4 26.3,-4 4.6,-41.5 26.3,-79 							"/>
						</g>
						<g>
							<polygon class="st1" points="168,-83 144,-124.5 168,-166 216,-166 240,-124.5 216,-83 							"/>
							<polygon class="st2" points="235.4,-124.5 213.7,-87 170.3,-87 148.6,-124.5 170.3,-162 213.7,-162 							"/>
							<polygon class="st3" points="213.7,-87 170.3,-87 148.6,-124.5 170.3,-162 							"/>
						</g>
						<g>
							<polygon class="st1" points="96,-41.5 72,-83 96,-124.5 144,-124.5 168,-83 144,-41.5 							"/>
							<polygon class="st2" points="163.4,-83 141.7,-45.5 98.3,-45.5 76.6,-83 98.3,-120.5 141.7,-120.5 							"/>
							<polygon class="st3" points="141.7,-45.5 98.3,-45.5 76.6,-83 98.3,-120.5 							"/>
						</g>
						<g>
							<polygon class="st1" points="24,-83 0,-124.5 24,-166 72,-166 96,-124.5 72,-83 							"/>
							<polygon class="st2" points="91.4,-124.5 69.7,-87 26.3,-87 4.6,-124.5 26.3,-162 69.7,-162 							"/>
							<polygon class="st3" points="69.7,-87 26.3,-87 4.6,-124.5 26.3,-162 							"/>
						</g>
					</g>
				</g>
			</g>
		</g>
	</g>
</pattern>
<g id="Layer_2">
	<pattern  id="SVGID_1_" xlink:href="#SVGID_2_" patternTransform="matrix(1 0 0 1 -583 34674.8633)">
	</pattern>
	<rect x="-142.4" y="146.3" class="st4" width="1500" height="500.7"/>
</g>
<g id="Layer_1">
	<g id="XMLID_3_">
		<g>
			<polygon class="st5" points="1107.2,201 1107.2,503.2 251.1,588.8 251.5,286.6 			"/>
		</g>
	</g>
	<g id="XMLID_1_">
		<g>
			<path class="st1" d="M954.9,297.7V342l-3.2,0.3l-2.7-3.5c-1.8,2-3.9,3.5-6.3,4.5c-2.4,1-4.8,1.6-7.2,1.8c-2.3,0.2-4.5,0.2-6.9,0
				c-2.3-0.3-4.4-0.8-6.2-1.7c-1.8-0.9-3.3-2.1-4.5-3.7c-1.2-1.6-1.7-3.6-1.7-6v-49.7c0-3.3,0.6-6.2,1.7-8.6
				c1.2-2.4,2.7-4.3,4.5-5.9c1.8-1.5,3.9-2.7,6.2-3.5c2.3-0.8,4.6-1.4,6.9-1.6c2.3-0.3,4.6-0.2,6.9,0.1c2.3,0.3,4.3,0.9,6.2,1.9
				c1.8,1,3.3,2.4,4.5,4.2c1.2,1.8,1.7,4.1,1.7,6.8v1.8l-12.2,1.3c0-2.3-0.6-3.9-1.8-4.8c-1.2-0.9-3-1.2-5.4-0.9
				c-1.4,0.2-2.6,0.5-3.6,1c-1,0.5-1.7,1.1-2.3,1.9c-0.5,0.7-0.9,1.6-1.1,2.5c-0.2,0.9-0.3,1.9-0.3,2.8V328c0,1,0.1,1.9,0.3,2.8
				c0.2,0.9,0.6,1.7,1.1,2.3c0.5,0.6,1.3,1.1,2.3,1.4c0.9,0.3,2.1,0.4,3.6,0.2c1.4-0.2,2.6-0.5,3.6-1c0.9-0.5,1.7-1.1,2.3-1.9
				c0.5-0.7,0.9-1.6,1.1-2.5c0.2-0.9,0.3-1.9,0.3-2.8v-17.1l-5.1,0.5v-10.3L954.9,297.7z"/>
			<polygon class="st1" points="904.2,269.1 904.2,347.5 891.2,348.9 875.1,305 875.1,350.6 862.9,351.9 862.9,273.5 876.9,272 
				892.2,320.3 892.2,270.4 			"/>
			<polygon class="st1" points="849.8,274.9 849.8,353.3 837.7,354.6 837.7,276.2 			"/>
			<path class="st1" d="M826.2,292.5v48.2c-0.3,2.4-1,4.6-2.1,6.6c-1.1,2-2.4,3.7-4.1,5.2c-1.6,1.5-3.5,2.7-5.6,3.6
				c-2.1,0.9-4.2,1.5-6.5,1.7l-16.9,1.8v-78.4l16.9-1.8c2.3-0.2,4.4-0.1,6.5,0.3c2.1,0.5,3.9,1.3,5.6,2.4c1.6,1.1,3,2.6,4.1,4.3
				C825.2,288.1,825.9,290.2,826.2,292.5z M814.2,339.1v-42.5c0-1-0.1-1.9-0.3-2.8c-0.2-0.9-0.5-1.7-1-2.3c-0.5-0.7-1.1-1.2-1.9-1.5
				c-0.8-0.3-1.8-0.4-3-0.3l-4.9,0.5v57.6l4.9-0.5c2.3-0.3,3.9-1.2,4.9-2.8C813.7,342.9,814.2,341.1,814.2,339.1z"/>
			<path class="st1" d="M779,296.6v50.3c0,2.4-0.5,4.6-1.6,6.6c-1.1,2-2.4,3.7-4.2,5.2c-1.7,1.5-3.7,2.7-5.9,3.6
				c-2.2,0.9-4.4,1.5-6.7,1.7c-2.3,0.2-4.5,0.1-6.7-0.3c-2.2-0.4-4.2-1.2-5.9-2.3c-1.7-1.1-3.1-2.5-4.2-4.3
				c-1.1-1.8-1.6-3.8-1.6-6.2v-50.3c0-2.4,0.5-4.6,1.6-6.6c1.1-2,2.4-3.7,4.2-5.2c1.7-1.5,3.7-2.7,5.9-3.6c2.2-0.9,4.4-1.5,6.7-1.7
				s4.5-0.1,6.7,0.3c2.2,0.4,4.2,1.2,5.9,2.3c1.7,1.1,3.1,2.5,4.2,4.3C778.5,292.1,779,294.2,779,296.6z M766.9,345.3v-44.5
				c0-2-0.4-3.6-1.3-5c-0.9-1.3-2.5-1.9-4.9-1.8c-2.4,0.4-4,1.4-4.9,2.9c-0.9,1.5-1.3,3.3-1.3,5.3v44.5c0,2,0.4,3.6,1.3,5
				c0.9,1.3,2.5,1.9,4.9,1.8c2.4-0.4,4-1.4,4.9-2.9C766.5,349,766.9,347.2,766.9,345.3z"/>
			<path class="st1" d="M732.3,356.7v9.4c-0.2,0.2-0.6,0.3-1.2,0.5c-0.5,0.2-1.3,0.4-2.4,0.6c-1.1,0.2-2.5,0.4-4.3,0.6
				c-4.8,0.5-9-0.2-12.3-2.1c-3.4-1.9-6.1-4.6-8.2-8.2c-2.1-3.6-3.6-7.8-4.5-12.7c-0.9-4.9-1.4-10.1-1.4-15.5c0-6.3,0.7-12,2.2-17
				c1.4-5,3.3-9.3,5.6-12.9c2.3-3.6,5-6.4,7.9-8.4c3-2,6-3.2,9.2-3.5c1.6-0.2,3.4-0.2,5.2-0.2c1.8,0,3.3,0.2,4.3,0.4v10.1
				c-1-0.1-2.1-0.1-3.5-0.1c-1.4,0-2.5,0.1-3.3,0.2c-2.9,0.3-5.4,1.5-7.4,3.5c-2,2-3.6,4.5-4.8,7.4c-1.2,2.9-2.1,6-2.6,9.3
				c-0.5,3.3-0.8,6.5-0.8,9.4c0,4.3,0.3,8.4,1,12.2c0.7,3.8,1.7,7.1,3.1,9.9c1.4,2.8,3.1,4.9,5.1,6.4c2.1,1.5,4.5,2.1,7.3,1.8
				c0.8-0.1,1.8-0.2,3-0.4C730.5,357.2,731.5,357,732.3,356.7z"/>
			<polygon class="st1" points="666.1,294.5 649.7,346.6 649.7,374.7 637.6,376 637.6,347.9 621.8,299.3 634,298 643.7,330.4 
				653.9,295.8 			"/>
			<path class="st1" d="M608.4,347.6l8.5,30.6l-12.7,1.4l-7.5-27.9l-5.4,0.6v28.7l-12.1,1.3v-78.4l17.9-1.9c2.3-0.2,4.5-0.1,6.6,0.3
				c2.2,0.5,4.2,1.2,5.9,2.3c1.7,1.1,3.1,2.5,4.2,4.3c1.1,1.8,1.6,3.8,1.6,6.2v19.3c0,2.4-0.7,4.7-2,7S610.3,345.7,608.4,347.6z
				 M603.4,333v-13.8c0-1-0.1-1.9-0.3-2.8c-0.2-0.9-0.5-1.7-1-2.3c-0.5-0.7-1.1-1.2-2-1.5c-0.8-0.3-1.8-0.4-3-0.3l-5.8,0.6v28.9
				l5.8-0.6c2.3-0.2,3.9-1.2,4.9-2.8C602.9,336.7,603.4,335,603.4,333z"/>
			<path class="st1" d="M557.8,306.1l12.4,77.1l-12.2,1.3l-2.7-20.9l-13.7,1.5l-2.7,21.5l-12.2,1.3l12.4-79.7L557.8,306.1z
				 M553.7,353.4l-5.2-34.8l-5.1,36L553.7,353.4z"/>
			<polygon class="st1" points="517.8,310.4 517.8,388.8 505.7,390.1 505.7,311.7 			"/>
			<path class="st1" d="M495.7,327.9v19.4c-0.3,2.4-0.9,4.5-2,6.5c-1.1,2-2.5,3.7-4.2,5.2c-1.7,1.5-3.5,2.7-5.6,3.6
				c-2.1,0.9-4.2,1.5-6.5,1.8l-5.9,0.6v28.7l-12.2,1.3v-78.4l18.1-1.9c2.3-0.2,4.4-0.1,6.5,0.3c2.1,0.5,4,1.3,5.6,2.4
				c1.7,1.2,3.1,2.6,4.2,4.4C494.7,323.6,495.4,325.6,495.7,327.9z M483.5,345.8v-13.7c0-1-0.1-1.9-0.3-2.8
				c-0.2-0.9-0.6-1.7-1.1-2.3c-0.5-0.7-1.2-1.2-2-1.5c-0.8-0.4-1.8-0.5-3-0.3l-5.7,0.6v28.9l5.7-0.6c2.4-0.3,4-1.2,5-2.8
				C483,349.5,483.5,347.7,483.5,345.8z"/>
			<path class="st1" d="M437.8,318.9l12.4,77.1l-12.2,1.3l-2.7-20.9l-13.7,1.5l-2.7,21.5l-12.2,1.3l12.4-79.7L437.8,318.9z
				 M433.8,366.3l-5.2-34.9l-5.1,36L433.8,366.3z"/>
		</g>
	</g>
	<g id="XMLID_2_">
		<g>
			<polygon class="st6" points="994.8,376.7 994.8,412 988.9,412.6 981.7,392.9 981.7,413.4 976.2,414 976.2,378.7 982.5,378 
				989.4,399.8 989.4,377.3 			"/>
			<polygon class="st6" points="971,409.9 971,414.6 958.2,415.9 958.2,380.6 971,379.3 971,383.9 963.6,384.7 963.6,395.5 
				969.7,394.9 969.7,399.5 963.6,400.2 963.6,410.6 			"/>
			<polygon class="st6" points="952.3,381.3 952.3,416.6 946.9,417.1 946.9,396.3 941.6,409.1 940.1,409.2 934.9,397.6 934.9,418.4 
				929.5,419 929.5,383.7 934.8,383.1 940.9,398.8 947.2,381.8 			"/>
			<path class="st6" d="M924,390.6v22.6c0,1.1-0.2,2.1-0.7,3c-0.5,0.9-1.1,1.7-1.9,2.4c-0.8,0.7-1.7,1.2-2.6,1.6c-1,0.4-2,0.7-3,0.8
				c-1,0.1-2,0.1-3-0.1c-1-0.2-1.9-0.5-2.7-1c-0.8-0.5-1.4-1.2-1.9-1.9c-0.5-0.8-0.7-1.7-0.7-2.8v-22.6c0-1.1,0.2-2.1,0.7-3
				c0.5-0.9,1.1-1.7,1.9-2.4c0.8-0.7,1.7-1.2,2.7-1.6c1-0.4,2-0.7,3-0.8c1-0.1,2-0.1,3,0.1c1,0.2,1.9,0.5,2.6,1
				c0.8,0.5,1.4,1.2,1.9,1.9C923.8,388.6,924,389.6,924,390.6z M918.6,412.6v-20c0-0.9-0.2-1.6-0.6-2.2c-0.4-0.6-1.1-0.9-2.2-0.8
				c-1.1,0.2-1.8,0.6-2.2,1.3c-0.4,0.7-0.6,1.5-0.6,2.4v20c0,0.9,0.2,1.6,0.6,2.2c0.4,0.6,1.1,0.9,2.2,0.8c1.1-0.2,1.8-0.6,2.2-1.3
				S918.6,413.4,918.6,412.6z"/>
			<polygon class="st6" points="903.9,386.4 898.8,422.3 892.3,423 889.2,403 886.1,423.6 879.5,424.3 874.4,389.6 879.8,389 
				882.8,414.4 886.8,388.3 891.6,387.8 895.6,413 898.5,387 			"/>
			<polygon class="st6" points="860.7,457.9 870.6,474.5 864.5,475.2 855.8,460.7 855.8,476.1 850.4,476.7 850.4,441.4 855.8,440.8 
				855.8,456.1 863.8,440 869.8,439.4 			"/>
			<path class="st6" d="M857.2,412.5l3.8,13.8l-5.7,0.6l-3.4-12.5l-2.4,0.3v12.9l-5.4,0.6v-35.3l8.1-0.9c1-0.1,2-0.1,3,0.1
				c1,0.2,1.9,0.6,2.6,1.1c0.8,0.5,1.4,1.2,1.9,1.9c0.5,0.8,0.7,1.7,0.7,2.8v8.7c0,1.1-0.3,2.1-0.9,3.1
				C858.8,410.8,858,411.7,857.2,412.5z M854.9,406v-6.2c0-0.4-0.1-0.8-0.1-1.3c-0.1-0.4-0.3-0.8-0.5-1.1c-0.2-0.3-0.5-0.5-0.9-0.7
				c-0.4-0.1-0.8-0.2-1.3-0.1l-2.6,0.3v13l2.6-0.3c1-0.1,1.8-0.5,2.2-1.3C854.7,407.7,854.9,406.9,854.9,406z"/>
			<polygon class="st6" points="846.2,472.5 846.2,477.2 833.3,478.5 833.3,443.2 838.8,442.7 838.8,473.3 			"/>
			<path class="st6" d="M838.6,399.8v22.6c0,1.1-0.2,2.1-0.7,3c-0.5,0.9-1.1,1.7-1.9,2.4c-0.8,0.7-1.7,1.2-2.6,1.6
				c-1,0.4-2,0.7-3,0.8c-1,0.1-2,0.1-3-0.1c-1-0.2-1.9-0.5-2.6-1.1c-0.8-0.5-1.4-1.2-1.9-1.9c-0.5-0.8-0.7-1.7-0.7-2.8v-22.6
				c0-1.1,0.2-2.1,0.7-3c0.5-0.9,1.1-1.7,1.9-2.3c0.8-0.7,1.6-1.2,2.6-1.6c1-0.4,2-0.7,3-0.8c1-0.1,2-0.1,3,0.1
				c1,0.2,1.9,0.5,2.6,1.1c0.8,0.5,1.4,1.1,1.9,1.9C838.4,397.8,838.6,398.7,838.6,399.8z M833.2,421.7v-20c0-0.9-0.2-1.6-0.6-2.2
				c-0.4-0.6-1.1-0.9-2.2-0.8c-1.1,0.2-1.8,0.6-2.2,1.3s-0.6,1.5-0.6,2.4v20c0,0.9,0.2,1.6,0.6,2.2c0.4,0.6,1.1,0.9,2.2,0.8
				c1.1-0.2,1.8-0.6,2.2-1.3C833,423.4,833.2,422.6,833.2,421.7z"/>
			<path class="st6" d="M827.9,450.2v22.6c0,1.1-0.2,2.1-0.7,3c-0.5,0.9-1.1,1.7-1.9,2.3c-0.8,0.7-1.7,1.2-2.6,1.6
				c-1,0.4-2,0.7-3,0.8c-1,0.1-2,0.1-3-0.1c-1-0.2-1.9-0.5-2.6-1.1c-0.8-0.5-1.4-1.1-1.9-1.9c-0.5-0.8-0.7-1.7-0.7-2.8v-22.6
				c0-1.1,0.2-2.1,0.7-3c0.5-0.9,1.1-1.7,1.9-2.3c0.8-0.7,1.6-1.2,2.6-1.6c1-0.4,2-0.7,3-0.8s2-0.1,3,0.1c1,0.2,1.9,0.5,2.6,1.1
				c0.8,0.5,1.4,1.1,1.9,1.9C827.7,448.2,827.9,449.1,827.9,450.2z M822.5,472.1v-20c0-0.9-0.2-1.6-0.6-2.2
				c-0.4-0.6-1.1-0.9-2.2-0.8c-1.1,0.2-1.8,0.6-2.2,1.3c-0.4,0.7-0.6,1.5-0.6,2.4v20c0,0.9,0.2,1.6,0.6,2.2c0.4,0.6,1.1,0.9,2.2,0.8
				c1.1-0.2,1.8-0.6,2.2-1.3C822.3,473.8,822.5,473,822.5,472.1z"/>
			<polygon class="st6" points="818,395.6 818,400.3 810.6,401.1 810.6,411.9 816.7,411.2 816.7,415.9 810.6,416.5 810.6,431.7 
				805.3,432.3 805.3,397 			"/>
			<polygon class="st6" points="807.4,446 807.4,450.7 799.9,451.5 799.9,462.3 806,461.6 806,466.3 799.9,466.9 799.9,482.1 
				794.6,482.7 794.6,447.4 			"/>
			<path class="st6" d="M788.6,414.1v20l-1.4,0.1l-1.2-1.6c-0.8,0.9-1.8,1.6-2.8,2c-1.1,0.4-2.1,0.7-3.2,0.8c-1,0.1-2,0.1-3.1,0
				c-1-0.1-2-0.4-2.8-0.8c-0.8-0.4-1.5-0.9-2-1.7c-0.5-0.7-0.8-1.6-0.8-2.7V408c0-1.5,0.3-2.8,0.8-3.9c0.5-1.1,1.2-1.9,2-2.6
				c0.8-0.7,1.8-1.2,2.8-1.6c1.1-0.4,2.1-0.6,3.1-0.7c1-0.1,2.1-0.1,3.1,0c1,0.1,2,0.4,2.8,0.9c0.8,0.4,1.5,1.1,2,1.9
				c0.5,0.8,0.8,1.8,0.8,3.1v0.8l-5.5,0.6c0-1.1-0.3-1.8-0.8-2.2c-0.5-0.4-1.3-0.5-2.4-0.4c-0.6,0.1-1.2,0.2-1.6,0.5
				c-0.4,0.2-0.8,0.5-1,0.8c-0.2,0.3-0.4,0.7-0.5,1.1c-0.1,0.4-0.1,0.8-0.1,1.3v20.1c0,0.4,0.1,0.8,0.1,1.2c0.1,0.4,0.3,0.8,0.5,1
				c0.3,0.3,0.6,0.5,1,0.6c0.4,0.1,1,0.2,1.6,0.1c0.6-0.1,1.2-0.2,1.6-0.5c0.4-0.2,0.8-0.5,1-0.8c0.3-0.3,0.4-0.7,0.5-1.1
				c0.1-0.4,0.1-0.9,0.1-1.3v-7.7l-2.3,0.3v-4.7L788.6,414.1z"/>
			<polygon class="st6" points="779.3,449 771.9,472.5 771.9,485.1 766.5,485.7 766.5,473.1 759.4,451.2 764.8,450.6 769.2,465.2 
				773.8,449.6 			"/>
			<polygon class="st6" points="765.8,401.2 765.8,436.5 759.9,437.1 752.7,417.4 752.7,437.9 747.2,438.5 747.2,403.2 753.5,402.5 
				760.4,424.3 760.4,401.8 			"/>
			<path class="st6" d="M753.3,472.9l3.8,13.8l-5.7,0.6l-3.3-12.5l-2.4,0.3v12.9l-5.4,0.6v-35.3l8.1-0.9c1-0.1,2-0.1,3,0.1
				c1,0.2,1.9,0.6,2.7,1.1c0.8,0.5,1.4,1.1,1.9,1.9c0.5,0.8,0.7,1.7,0.7,2.8v8.7c0,1.1-0.3,2.1-0.9,3.2
				C755,471.1,754.2,472.1,753.3,472.9z M751.1,466.3v-6.2c0-0.4,0-0.9-0.1-1.3c-0.1-0.4-0.3-0.8-0.5-1.1c-0.2-0.3-0.5-0.5-0.9-0.7
				c-0.4-0.1-0.8-0.2-1.3-0.1l-2.6,0.3v13l2.6-0.3c1-0.1,1.8-0.5,2.2-1.3C750.9,468,751.1,467.2,751.1,466.3z"/>
			<polygon class="st6" points="741.3,403.8 741.3,439.1 735.9,439.7 735.9,404.4 			"/>
			<path class="st6" d="M730.6,454.2l5.6,34.7l-5.5,0.6l-1.2-9.4l-6.2,0.7l-1.2,9.7l-5.5,0.6l5.6-35.9L730.6,454.2z M728.7,475.5
				l-2.4-15.7l-2.3,16.2L728.7,475.5z"/>
			<polygon class="st6" points="730,405 730,440.3 724.1,440.9 716.9,421.2 716.9,441.7 711.4,442.3 711.4,407 717.7,406.3 
				724.6,428.1 724.6,405.6 			"/>
			<polygon class="st6" points="712.6,456.2 712.6,491.4 706.7,492.1 699.5,472.3 699.5,492.8 694,493.4 694,458.1 700.3,457.5 
				707.2,479.2 707.2,456.7 			"/>
			<path class="st6" d="M703.1,429l3.8,13.8l-5.7,0.6l-3.4-12.5l-2.4,0.3V444l-5.4,0.6v-35.3l8.1-0.9c1-0.1,2-0.1,3,0.1
				c1,0.2,1.9,0.5,2.6,1.1c0.8,0.5,1.4,1.1,1.9,1.9c0.5,0.8,0.7,1.7,0.7,2.8v8.7c0,1.1-0.3,2.1-0.9,3.1
				C704.7,427.3,704,428.2,703.1,429z M700.8,422.4v-6.2c0-0.4,0-0.8-0.1-1.3c-0.1-0.4-0.3-0.7-0.5-1.1c-0.2-0.3-0.5-0.5-0.9-0.7
				s-0.8-0.2-1.3-0.1l-2.6,0.3v13l2.6-0.3c1-0.1,1.8-0.5,2.2-1.2C700.6,424.1,700.8,423.3,700.8,422.4z"/>
			<polygon class="st6" points="688.1,458.8 688.1,494.1 682.7,494.6 682.7,459.4 			"/>
			<path class="st6" d="M680.3,410.3l5.6,34.7l-5.5,0.6l-1.2-9.4l-6.2,0.7l-1.2,9.7l-5.5,0.6l5.6-35.9L680.3,410.3z M678.5,431.6
				l-2.4-15.7l-2.3,16.2L678.5,431.6z"/>
			<path class="st6" d="M677.9,467.8v1.4c0,0.9,0,1.7-0.1,2.7c-0.1,0.9-0.2,1.8-0.4,2.6c-0.2,0.8-0.4,1.5-0.8,2.2
				c-0.3,0.6-0.7,1.1-1.3,1.4c1,0.3,1.7,1.1,2,2.4c0.3,1.3,0.5,2.8,0.5,4.7c0,1.5-0.2,2.9-0.5,4.2c-0.3,1.3-0.8,2.4-1.4,3.3
				c-0.6,0.9-1.3,1.7-2.2,2.3c-0.9,0.6-1.8,0.9-2.9,1l-9,1v-35.3l8.1-0.9c1-0.1,2,0,3,0.3c1,0.3,1.8,0.7,2.5,1.3
				c0.7,0.6,1.3,1.4,1.7,2.3C677.7,465.5,677.9,466.6,677.9,467.8z M672.5,471.3v-1.4c0-0.5,0-1-0.1-1.5c-0.1-0.5-0.3-1-0.5-1.5
				c-0.2-0.4-0.5-0.8-0.9-1.1c-0.4-0.3-0.8-0.4-1.4-0.3l-2.4,0.3v10.9l2.4-0.3c0.6-0.1,1-0.3,1.4-0.6c0.4-0.3,0.6-0.8,0.9-1.2
				c0.2-0.5,0.4-1,0.5-1.6C672.5,472.3,672.5,471.8,672.5,471.3z M672.5,485.4c0-0.5,0-1-0.1-1.5c-0.1-0.5-0.3-1-0.5-1.5
				c-0.2-0.4-0.5-0.8-0.9-1.1c-0.4-0.3-0.8-0.4-1.4-0.3l-2.4,0.3v10.4l2.4-0.3c0.7-0.1,1.2-0.3,1.6-0.8c0.4-0.5,0.7-1,0.9-1.6
				c0.2-0.6,0.3-1.2,0.4-1.9C672.5,486.5,672.5,485.9,672.5,485.4z"/>
			<polygon class="st6" points="663,442.8 663,447.5 650.2,448.9 650.2,413.6 663,412.2 663,416.8 655.6,417.7 655.6,428.5 
				661.7,427.8 661.7,432.5 655.6,433.1 655.6,443.6 			"/>
			<polygon class="st6" points="655.1,483.2 655.1,487.9 641,489.4 641,484.7 			"/>
			<polygon class="st6" points="646,444.6 646,449.3 633.2,450.7 633.2,415.4 638.6,414.8 638.6,445.4 			"/>
			<polygon class="st6" points="634.2,464.5 634.2,499.8 628.4,500.4 621.1,480.7 621.1,501.2 615.7,501.8 615.7,466.5 622,465.9 
				628.8,487.6 628.8,465.1 			"/>
			<polygon class="st6" points="617.2,447.7 617.2,452.4 604.4,453.7 604.4,418.5 617.2,417.1 617.2,421.7 609.8,422.5 609.8,433.4 
				615.9,432.7 615.9,437.4 609.8,438 609.8,448.5 			"/>
			<path class="st6" d="M610.2,473.5v22.6c0,1.1-0.2,2.1-0.7,3c-0.5,0.9-1.1,1.7-1.9,2.3c-0.8,0.7-1.7,1.2-2.7,1.6
				c-1,0.4-2,0.7-3,0.8c-1,0.1-2,0.1-3-0.1s-1.9-0.5-2.6-1.1s-1.4-1.2-1.9-1.9c-0.5-0.8-0.7-1.7-0.7-2.8v-22.6c0-1.1,0.2-2.1,0.7-3
				c0.5-0.9,1.1-1.7,1.9-2.3c0.8-0.7,1.6-1.2,2.6-1.6c1-0.4,2-0.7,3-0.8c1-0.1,2-0.1,3,0.1c1,0.2,1.9,0.5,2.7,1.1
				c0.8,0.5,1.4,1.1,1.9,1.9C610,471.5,610.2,472.4,610.2,473.5z M604.8,495.4v-20c0-0.9-0.2-1.6-0.6-2.2c-0.4-0.6-1.1-0.9-2.2-0.8
				c-1.1,0.2-1.8,0.6-2.2,1.3c-0.4,0.7-0.6,1.5-0.6,2.4v20c0,0.9,0.2,1.6,0.6,2.2c0.4,0.6,1.1,0.9,2.2,0.8c1.1-0.2,1.8-0.6,2.2-1.3
				C604.6,497.1,604.8,496.3,604.8,495.4z"/>
			<polygon class="st6" points="600.4,418.9 593.6,454.9 586.5,455.7 579.8,421.1 585.5,420.5 590.1,448.5 594.6,419.5 			"/>
			<polygon class="st6" points="588.3,469.5 588.3,504.7 582.5,505.4 575.2,485.6 575.2,506.1 569.7,506.7 569.7,471.4 576,470.8 
				582.9,492.5 582.9,470 			"/>
			<polygon class="st6" points="575.7,421.5 575.7,456.8 570.3,457.4 570.3,422.1 			"/>
			<polygon class="st6" points="565.3,422.6 565.3,427.3 560.6,427.8 560.6,458.4 555.2,459 555.2,428.4 550.6,428.9 550.6,424.2 
							"/>
			<path class="st6" d="M553.8,479.9v21.7c-0.1,1.1-0.4,2.1-0.9,3c-0.5,0.9-1.1,1.7-1.8,2.3c-0.7,0.7-1.6,1.2-2.5,1.6
				c-0.9,0.4-1.9,0.7-2.9,0.8l-7.6,0.8v-35.3l7.6-0.8c1-0.1,2-0.1,2.9,0.2c0.9,0.2,1.8,0.6,2.5,1.1c0.7,0.5,1.4,1.2,1.8,2
				C553.4,478,553.7,478.9,553.8,479.9z M548.4,500.9v-19.1c0-0.4,0-0.8-0.1-1.3c-0.1-0.4-0.3-0.7-0.5-1.1c-0.2-0.3-0.5-0.5-0.9-0.7
				c-0.4-0.1-0.8-0.2-1.3-0.1l-2.2,0.2v25.9l2.2-0.2c1-0.1,1.8-0.5,2.2-1.3C548.2,502.6,548.4,501.8,548.4,500.9z"/>
			<path class="st6" d="M543.8,425l5.6,34.7l-5.5,0.6l-1.2-9.4l-6.2,0.7l-1.2,9.7l-5.5,0.6l5.6-35.9L543.8,425z M541.9,446.2
				l-2.4-15.7l-2.3,16.2L541.9,446.2z"/>
			<polygon class="st6" points="532.1,475.5 532.1,510.7 526.3,511.4 519,491.6 519,512.1 513.5,512.7 513.5,477.4 519.9,476.8 
				526.7,498.5 526.7,476 			"/>
			<path class="st6" d="M523.3,448.2l3.8,13.8l-5.7,0.6l-3.3-12.5l-2.4,0.3v12.9l-5.4,0.6v-35.3l8.1-0.9c1-0.1,2-0.1,3,0.1
				c1,0.2,1.9,0.5,2.7,1.1c0.8,0.5,1.4,1.1,1.9,1.9c0.5,0.8,0.7,1.7,0.7,2.8v8.7c0,1.1-0.3,2.1-0.9,3.1
				C525,446.5,524.2,447.4,523.3,448.2z M521.1,441.7v-6.2c0-0.4,0-0.8-0.1-1.3c-0.1-0.4-0.2-0.8-0.5-1.1c-0.2-0.3-0.5-0.5-0.9-0.7
				c-0.4-0.1-0.8-0.2-1.3-0.1l-2.6,0.3v13l2.6-0.3c1-0.1,1.8-0.5,2.2-1.2C520.9,443.4,521.1,442.5,521.1,441.7z"/>
			<path class="st6" d="M503.9,478.5l5.6,34.7l-5.5,0.6l-1.2-9.4l-6.2,0.6l-1.2,9.7l-5.5,0.6l5.6-35.9L503.9,478.5z M502.1,499.8
				l-2.4-15.7l-2.3,16.2L502.1,499.8z"/>
			<path class="st6" d="M504.8,435.5v22.6c0,1.1-0.2,2.1-0.7,3c-0.5,0.9-1.1,1.7-1.9,2.3c-0.8,0.7-1.7,1.2-2.6,1.6
				c-1,0.4-2,0.7-3,0.8c-1,0.1-2,0.1-3-0.1c-1-0.2-1.9-0.5-2.7-1.1c-0.8-0.5-1.4-1.1-1.9-1.9c-0.5-0.8-0.7-1.7-0.7-2.8v-22.6
				c0-1.1,0.2-2.1,0.7-3c0.5-0.9,1.1-1.7,1.9-2.3c0.8-0.7,1.7-1.2,2.7-1.6c1-0.4,2-0.7,3-0.8c1-0.1,2-0.1,3,0.1
				c1,0.2,1.9,0.6,2.6,1.1c0.8,0.5,1.4,1.1,1.9,1.9C504.5,433.5,504.8,434.4,504.8,435.5z M499.3,457.4v-20c0-0.9-0.2-1.6-0.6-2.2
				c-0.4-0.6-1.1-0.9-2.2-0.8c-1.1,0.2-1.8,0.6-2.2,1.3c-0.4,0.7-0.6,1.5-0.6,2.4v20c0,0.9,0.2,1.6,0.6,2.2c0.4,0.6,1.1,0.9,2.2,0.8
				c1.1-0.2,1.8-0.6,2.2-1.3S499.3,458.3,499.3,457.4z"/>
			<path class="st6" d="M484,439.3v1.4c0,0.9,0,1.7-0.1,2.7c-0.1,0.9-0.2,1.8-0.4,2.6c-0.2,0.8-0.4,1.5-0.8,2.2
				c-0.3,0.6-0.7,1.1-1.3,1.4c1,0.3,1.7,1.1,2,2.4c0.3,1.3,0.5,2.8,0.5,4.7c0,1.5-0.2,2.9-0.5,4.2c-0.3,1.3-0.8,2.4-1.4,3.3
				s-1.3,1.7-2.2,2.3c-0.9,0.6-1.8,0.9-2.9,1l-9,1v-35.3l8.1-0.9c1-0.1,2,0,3,0.3c0.9,0.3,1.8,0.7,2.5,1.4c0.7,0.6,1.3,1.4,1.7,2.3
				C483.7,437,484,438.1,484,439.3z M478.6,442.7v-1.4c0-0.5,0-1-0.1-1.5c-0.1-0.5-0.3-1-0.5-1.5c-0.2-0.5-0.5-0.8-0.9-1.1
				c-0.4-0.3-0.8-0.4-1.4-0.3l-2.4,0.3V448l2.4-0.3c0.5-0.1,1-0.3,1.4-0.6c0.4-0.4,0.6-0.8,0.9-1.3c0.2-0.5,0.4-1,0.5-1.6
				C478.6,443.8,478.6,443.2,478.6,442.7z M478.6,456.9c0-0.5,0-1-0.1-1.5c-0.1-0.5-0.3-1-0.5-1.5c-0.2-0.5-0.5-0.8-0.9-1.1
				c-0.4-0.3-0.8-0.4-1.4-0.3l-2.4,0.3v10.4l2.4-0.3c0.7-0.1,1.2-0.3,1.6-0.8c0.4-0.4,0.7-1,0.8-1.6c0.2-0.6,0.3-1.2,0.4-1.9
				C478.6,457.9,478.6,457.4,478.6,456.9z"/>
			<path class="st6" d="M458.4,434.1l5.6,34.7l-5.5,0.6l-1.2-9.4l-6.2,0.7l-1.2,9.7l-5.5,0.6L450,435L458.4,434.1z M456.5,455.4
				l-2.4-15.7l-2.3,16.2L456.5,455.4z"/>
			<polygon class="st6" points="441.2,466.5 441.2,471.2 428.3,472.6 428.3,437.3 433.7,436.7 433.7,467.3 			"/>
			<polygon class="st6" points="424.1,468.3 424.1,473 411.3,474.4 411.3,439.1 416.7,438.5 416.7,469.1 			"/>
			<path class="st6" d="M405.8,446.1v22.6c0,1.1-0.2,2.1-0.7,3c-0.5,0.9-1.1,1.7-1.9,2.3c-0.8,0.7-1.7,1.2-2.6,1.6s-2,0.7-3,0.8
				c-1,0.1-2,0.1-3-0.1c-1-0.2-1.9-0.5-2.6-1.1c-0.8-0.5-1.4-1.2-1.9-1.9c-0.5-0.8-0.7-1.7-0.7-2.8v-22.6c0-1.1,0.2-2.1,0.7-3
				c0.5-0.9,1.1-1.7,1.9-2.3c0.8-0.7,1.6-1.2,2.6-1.6c1-0.4,2-0.7,3-0.8c1-0.1,2-0.1,3,0.1c1,0.2,1.9,0.5,2.6,1.1
				c0.8,0.5,1.4,1.1,1.9,1.9C405.6,444.1,405.8,445,405.8,446.1z M400.4,468v-20c0-0.9-0.2-1.6-0.6-2.3c-0.4-0.6-1.1-0.9-2.2-0.8
				c-1.1,0.2-1.8,0.6-2.2,1.3c-0.4,0.7-0.6,1.5-0.6,2.4v20c0,0.9,0.2,1.6,0.6,2.2c0.4,0.6,1.1,0.9,2.2,0.8c1.1-0.2,1.8-0.6,2.2-1.3
				C400.2,469.7,400.4,468.9,400.4,468z"/>
			<path class="st6" d="M384.8,473.1v4.2c-0.1,0.1-0.3,0.2-0.5,0.3c-0.3,0.1-0.6,0.2-1.1,0.3c-0.5,0.1-1.1,0.2-2,0.3
				c-2.2,0.2-4-0.1-5.6-0.9c-1.5-0.8-2.7-2.1-3.7-3.7c-0.9-1.6-1.6-3.5-2-5.7c-0.4-2.2-0.6-4.5-0.6-7c0-2.9,0.3-5.4,1-7.7
				c0.6-2.3,1.5-4.2,2.5-5.8c1-1.6,2.2-2.9,3.6-3.8c1.3-0.9,2.7-1.4,4.1-1.6c0.7-0.1,1.5-0.1,2.4-0.1c0.8,0,1.5,0.1,1.9,0.2v4.6
				c-0.4,0-1-0.1-1.6,0c-0.6,0-1.1,0-1.5,0.1c-1.3,0.1-2.4,0.7-3.3,1.6c-0.9,0.9-1.6,2-2.2,3.3c-0.5,1.3-0.9,2.7-1.2,4.2
				c-0.2,1.5-0.4,2.9-0.4,4.2c0,1.9,0.2,3.8,0.5,5.5c0.3,1.7,0.8,3.2,1.4,4.4s1.4,2.2,2.3,2.9c0.9,0.7,2,0.9,3.3,0.8
				c0.4,0,0.8-0.1,1.3-0.2C384,473.3,384.5,473.2,384.8,473.1z"/>
		</g>
	</g>
</g>
</svg>
