<?xml version="1.0" encoding="utf-8"?>
<!-- Generator: Adobe Illustrator 16.0.4, SVG Export Plug-In . SVG Version: 6.00 Build 0)  -->
<!DOCTYPE svg PUBLIC "-//W3C//DTD SVG 1.1//EN" "http://www.w3.org/Graphics/SVG/1.1/DTD/svg11.dtd">
<svg version="1.1" id="Layer_1" xmlns="http://www.w3.org/2000/svg" xmlns:xlink="http://www.w3.org/1999/xlink" x="0px" y="0px"
	 width="913.217px" height="414.136px" viewBox="0 0 913.217 414.136" enable-background="new 0 0 913.217 414.136"
	 xml:space="preserve">
<g id="XMLID_3_">
	<g>
		<polygon fill="#FFD401" points="912.833,0.368 912.849,322.461 0.368,413.768 0.848,91.631 		"/>
	</g>
	<g>
	</g>
</g>
<g id="XMLID_1_">
	<g>
		<path fill="#FFFFFF" d="M750.555,103.506v47.235l-3.39,0.36l-2.835-3.735c-1.966,2.175-4.2,3.78-6.705,4.815
			c-2.506,1.035-5.07,1.68-7.695,1.965c-2.4,0.255-4.83,0.24-7.305-0.03c-2.476-0.285-4.695-0.885-6.66-1.8s-3.556-2.22-4.8-3.915
			c-1.23-1.68-1.846-3.795-1.846-6.345v-53.01c0-3.57,0.615-6.615,1.846-9.15c1.244-2.535,2.835-4.605,4.8-6.24
			c1.965-1.635,4.185-2.88,6.66-3.765c2.475-0.885,4.904-1.455,7.305-1.71c2.475-0.27,4.935-0.24,7.365,0.09
			c2.43,0.315,4.635,1.005,6.6,2.07s3.555,2.565,4.8,4.5c1.23,1.95,1.86,4.38,1.86,7.275v1.965l-12.99,1.395
			c0-2.475-0.63-4.17-1.905-5.085c-1.274-0.915-3.18-1.245-5.729-0.975c-1.53,0.165-2.805,0.525-3.811,1.065
			c-1.02,0.54-1.829,1.215-2.399,1.995c-0.585,0.795-0.99,1.695-1.2,2.7c-0.225,1.005-0.33,2.01-0.33,3.03v47.565
			c0,1.02,0.105,2.01,0.33,2.97c0.21,0.96,0.615,1.77,1.2,2.43c0.57,0.675,1.38,1.17,2.399,1.485c1.006,0.33,2.28,0.42,3.811,0.255
			s2.805-0.525,3.825-1.065c1.005-0.54,1.814-1.215,2.399-1.995c0.57-0.795,0.976-1.695,1.2-2.7c0.21-1.005,0.315-2.01,0.315-3.03
			v-18.225l-5.445,0.585v-11.025L750.555,103.506z"/>
		<polygon fill="#FFFFFF" points="696.435,72.966 696.435,156.531 682.59,158.001 665.46,111.292 665.46,159.846 652.47,161.227 
			652.47,77.662 667.425,76.071 683.685,127.566 683.685,74.332 		"/>
		<polygon fill="#FFFFFF" points="638.52,79.162 638.52,162.727 625.635,164.091 625.635,80.526 		"/>
		<path fill="#FFFFFF" d="M613.319,97.881v51.39c-0.3,2.58-1.02,4.905-2.189,6.99c-1.155,2.1-2.61,3.945-4.365,5.55
			c-1.74,1.605-3.72,2.88-5.94,3.855c-2.22,0.96-4.529,1.575-6.93,1.83l-18,1.92V85.852l18-1.92c2.4-0.255,4.71-0.135,6.93,0.345
			c2.221,0.495,4.2,1.335,5.94,2.535c1.755,1.185,3.21,2.73,4.365,4.605C612.3,93.292,613.02,95.452,613.319,97.881z
			 M600.555,147.577v-45.27c0-1.02-0.105-2.01-0.33-2.97c-0.225-0.945-0.585-1.785-1.095-2.49c-0.511-0.72-1.2-1.245-2.07-1.59
			c-0.87-0.33-1.92-0.435-3.165-0.315l-5.235,0.57v61.41l5.235-0.555c2.475-0.27,4.2-1.275,5.19-3.015
			C600.06,151.611,600.555,149.691,600.555,147.577z"/>
		<path fill="#FFFFFF" d="M563.024,102.276v53.565c0,2.55-0.569,4.89-1.694,7.005c-1.125,2.115-2.61,3.975-4.471,5.55
			c-1.845,1.575-3.944,2.865-6.27,3.84s-4.695,1.59-7.096,1.845c-2.399,0.255-4.784,0.15-7.14-0.33
			c-2.37-0.465-4.455-1.305-6.27-2.49c-1.83-1.185-3.301-2.715-4.426-4.605c-1.125-1.875-1.694-4.08-1.694-6.63v-53.565
			c0-2.55,0.569-4.875,1.694-7.005c1.125-2.115,2.596-3.96,4.426-5.535c1.814-1.575,3.899-2.865,6.27-3.84
			c2.355-0.975,4.74-1.605,7.14-1.86c2.4-0.255,4.771-0.135,7.096,0.345c2.325,0.465,4.425,1.305,6.27,2.49
			c1.86,1.185,3.346,2.715,4.471,4.59S563.024,99.741,563.024,102.276z M550.154,154.176v-47.46c0-2.115-0.479-3.885-1.425-5.31
			c-0.945-1.425-2.685-2.07-5.235-1.95c-2.55,0.42-4.289,1.44-5.234,3.075c-0.945,1.635-1.41,3.495-1.41,5.61v47.445
			c0,2.115,0.465,3.885,1.41,5.31c0.945,1.425,2.685,2.07,5.234,1.95c2.551-0.42,4.29-1.44,5.235-3.075
			C549.675,158.151,550.154,156.276,550.154,154.176z"/>
		<path fill="#FFFFFF" d="M513.284,166.401v10.035c-0.225,0.165-0.659,0.36-1.319,0.585c-0.57,0.195-1.425,0.405-2.565,0.6
			c-1.125,0.195-2.67,0.39-4.635,0.6c-5.16,0.555-9.54-0.18-13.14-2.19c-3.601-2.025-6.511-4.95-8.73-8.775
			c-2.22-3.84-3.81-8.355-4.8-13.56c-0.975-5.205-1.47-10.725-1.47-16.53c0-6.765,0.765-12.81,2.295-18.15
			c1.53-5.325,3.525-9.9,6-13.725c2.475-3.825,5.279-6.825,8.444-8.985c3.165-2.145,6.42-3.405,9.766-3.765
			c1.755-0.18,3.6-0.255,5.564-0.21s3.495,0.195,4.59,0.435v10.8c-1.02-0.105-2.279-0.135-3.765-0.09
			c-1.5,0.045-2.67,0.12-3.555,0.225c-3.12,0.33-5.745,1.575-7.846,3.72c-2.114,2.16-3.824,4.77-5.13,7.86
			c-1.305,3.09-2.234,6.405-2.79,9.96c-0.54,3.54-0.81,6.885-0.81,10.005c0,4.59,0.36,8.91,1.095,12.975
			c0.721,4.065,1.815,7.575,3.271,10.5c1.455,2.94,3.27,5.205,5.444,6.78c2.19,1.59,4.771,2.22,7.756,1.905
			c0.869-0.09,1.92-0.225,3.164-0.39C511.35,166.852,512.399,166.642,513.284,166.401z"/>
		<polygon fill="#FFFFFF" points="442.695,100.102 425.25,155.631 425.25,185.526 412.379,186.906 412.379,157.011 395.459,105.142 
			408.45,103.761 418.814,138.321 429.72,101.481 		"/>
		<path fill="#FFFFFF" d="M381.18,156.636l9.045,32.64l-13.53,1.44l-7.965-29.7l-5.775,0.63v30.54l-12.87,1.38v-83.565l19.095-2.04
			c2.4-0.255,4.755-0.15,7.08,0.33c2.325,0.48,4.425,1.305,6.27,2.49c1.86,1.185,3.345,2.715,4.485,4.59
			c1.125,1.89,1.68,4.095,1.68,6.645v20.61c0,2.55-0.72,5.025-2.175,7.44S383.28,154.671,381.18,156.636z M375.825,141.066v-14.73
			c0-1.02-0.105-2.01-0.33-2.97c-0.21-0.96-0.585-1.785-1.08-2.49c-0.51-0.72-1.2-1.245-2.085-1.59
			c-0.87-0.33-1.92-0.435-3.15-0.315l-6.225,0.675v30.765l6.225-0.675c2.46-0.255,4.2-1.245,5.175-2.955
			C375.33,145.086,375.825,143.182,375.825,141.066z"/>
		<path fill="#FFFFFF" d="M327.285,112.432l13.2,82.155l-12.975,1.395l-2.85-22.275l-14.61,1.56l-2.835,22.875l-12.99,1.395
			l13.2-84.975L327.285,112.432z M322.919,162.861l-5.565-37.14l-5.46,38.325L322.919,162.861z"/>
		<polygon fill="#FFFFFF" points="284.625,116.991 284.625,200.557 271.754,201.937 271.754,118.372 		"/>
		<path fill="#FFFFFF" d="M261.06,135.667v20.73c-0.285,2.505-1.005,4.815-2.175,6.93c-1.17,2.13-2.64,3.975-4.425,5.55
			c-1.77,1.575-3.78,2.865-6,3.855c-2.205,1.005-4.515,1.635-6.915,1.89l-6.33,0.675v30.555l-12.99,1.38v-83.565l19.32-2.055
			c2.4-0.255,4.71-0.15,6.915,0.345c2.22,0.495,4.23,1.35,6,2.58c1.785,1.23,3.255,2.775,4.425,4.65
			C260.055,131.062,260.774,133.221,261.06,135.667z M248.084,154.731v-14.625c0-1.02-0.105-2.01-0.33-2.97
			c-0.21-0.96-0.6-1.785-1.14-2.49c-0.555-0.705-1.26-1.245-2.13-1.635c-0.87-0.375-1.935-0.495-3.165-0.36l-6.105,0.645v30.765
			l6.105-0.645c2.55-0.27,4.305-1.29,5.295-3.03C247.589,158.646,248.084,156.756,248.084,154.731z"/>
		<path fill="#FFFFFF" d="M199.425,126.111l13.215,82.155l-12.99,1.38l-2.835-22.275l-14.625,1.56l-2.835,22.89l-12.975,1.38
			l13.2-84.975L199.425,126.111z M195.075,176.542l-5.565-37.155l-5.46,38.325L195.075,176.542z"/>
	</g>
	<g>
	</g>
</g>
<g id="XMLID_2_">
	<g>
		<polygon fill="#231F20" points="793.021,187.702 793.021,225.307 786.781,225.981 779.071,204.952 779.071,226.807 
			773.236,227.421 773.236,189.816 779.956,189.097 787.276,212.271 787.276,188.316 		"/>
		<polygon fill="#231F20" points="767.687,223.012 767.687,228.021 754.036,229.477 754.036,191.872 767.687,190.417 
			767.687,195.367 759.781,196.222 759.781,207.757 766.262,207.066 766.262,212.017 759.781,212.707 759.781,223.852 		"/>
		<polygon fill="#231F20" points="747.751,192.546 747.751,230.151 741.961,230.767 741.961,208.582 736.366,222.187 
			734.791,222.352 729.196,209.947 729.196,232.132 723.406,232.747 723.406,195.142 729.046,194.542 735.586,211.267 
			742.262,193.132 		"/>
		<path fill="#231F20" d="M717.616,202.537v24.105c0,1.155-0.255,2.205-0.765,3.15c-0.511,0.96-1.17,1.785-2.011,2.505
			c-0.84,0.705-1.77,1.29-2.819,1.726c-1.05,0.435-2.115,0.72-3.195,0.824c-1.08,0.12-2.145,0.075-3.21-0.149
			c-1.064-0.21-2.01-0.585-2.835-1.11c-0.81-0.54-1.47-1.23-1.979-2.07c-0.511-0.855-0.766-1.845-0.766-2.985v-24.105
			c0-1.155,0.255-2.205,0.766-3.15c0.51-0.96,1.17-1.785,1.979-2.505c0.825-0.705,1.771-1.275,2.835-1.725
			c1.065-0.435,2.13-0.72,3.21-0.825c1.08-0.12,2.146-0.075,3.195,0.15c1.05,0.21,1.979,0.585,2.819,1.11
			c0.841,0.54,1.5,1.23,2.011,2.07C717.361,200.407,717.616,201.396,717.616,202.537z M711.826,225.892v-21.36
			c0-0.945-0.225-1.74-0.645-2.385s-1.216-0.93-2.355-0.87c-1.14,0.18-1.935,0.645-2.354,1.38c-0.42,0.735-0.646,1.575-0.646,2.52
			v21.36c0,0.945,0.226,1.74,0.646,2.385s1.215,0.93,2.354,0.87c1.14-0.18,1.936-0.645,2.355-1.38S711.826,226.836,711.826,225.892z
			"/>
		<polygon fill="#231F20" points="696.211,198.052 690.767,236.242 683.746,236.992 680.446,215.751 677.161,237.697 
			670.142,238.447 664.696,201.427 670.486,200.812 673.637,227.856 677.896,200.017 683.012,199.461 687.271,226.401 
			690.421,198.682 		"/>
		<polygon fill="#231F20" points="650.161,274.237 660.661,291.966 654.182,292.657 644.896,277.207 644.896,293.647 
			639.106,294.261 639.106,256.657 644.896,256.042 644.896,272.346 653.446,255.126 659.776,254.452 		"/>
		<path fill="#231F20" d="M646.336,225.876l4.08,14.686l-6.09,0.645l-3.585-13.365l-2.61,0.285v13.74l-5.79,0.63v-37.605l8.596-0.93
			c1.08-0.105,2.145-0.06,3.194,0.15c1.051,0.225,1.98,0.6,2.82,1.125c0.84,0.54,1.5,1.23,2.01,2.07
			c0.511,0.84,0.766,1.845,0.766,2.985v9.285c0,1.14-0.33,2.25-0.99,3.345C648.091,224.001,647.281,224.992,646.336,225.876z
			 M643.937,218.872v-6.63c0-0.465-0.061-0.9-0.15-1.335c-0.104-0.435-0.27-0.81-0.495-1.125c-0.225-0.33-0.54-0.555-0.93-0.72
			c-0.39-0.15-0.87-0.195-1.425-0.135l-2.806,0.3v13.845l2.806-0.3c1.109-0.12,1.89-0.57,2.325-1.335
			C643.711,220.671,643.937,219.816,643.937,218.872z"/>
		<polygon fill="#231F20" points="634.637,289.732 634.637,294.742 620.941,296.211 620.941,258.607 626.746,257.992 
			626.746,290.586 		"/>
		<path fill="#231F20" d="M626.552,212.287v24.09c0,1.155-0.256,2.205-0.766,3.15c-0.495,0.96-1.17,1.8-2.01,2.505
			c-0.825,0.705-1.771,1.29-2.82,1.725c-1.05,0.436-2.115,0.721-3.194,0.825c-1.08,0.12-2.146,0.075-3.21-0.135
			c-1.065-0.226-2.011-0.585-2.82-1.125c-0.825-0.54-1.485-1.23-1.995-2.07c-0.51-0.854-0.765-1.845-0.765-2.984v-24.105
			c0-1.155,0.255-2.205,0.765-3.15c0.51-0.96,1.17-1.785,1.995-2.49c0.81-0.72,1.755-1.29,2.82-1.74
			c1.064-0.435,2.13-0.705,3.21-0.825c1.079-0.12,2.145-0.06,3.194,0.15s1.995,0.585,2.82,1.125c0.84,0.525,1.515,1.215,2.01,2.055
			C626.296,210.142,626.552,211.132,626.552,212.287z M620.762,235.626v-21.36c0-0.945-0.21-1.74-0.646-2.385
			c-0.42-0.63-1.2-0.93-2.354-0.87c-1.141,0.18-1.936,0.645-2.355,1.38s-0.63,1.575-0.63,2.52v21.36c0,0.944,0.21,1.739,0.63,2.385
			c0.42,0.645,1.215,0.93,2.355,0.87c1.154-0.181,1.935-0.646,2.354-1.38C620.552,237.412,620.762,236.572,620.762,235.626z"/>
		<path fill="#231F20" d="M615.151,266.001v24.105c0,1.14-0.255,2.189-0.765,3.149c-0.495,0.945-1.171,1.785-2.011,2.49
			c-0.824,0.72-1.77,1.29-2.819,1.725c-1.051,0.436-2.115,0.721-3.195,0.841c-1.08,0.104-2.146,0.06-3.21-0.15
			c-1.065-0.21-2.01-0.585-2.82-1.125c-0.825-0.525-1.484-1.215-1.995-2.07c-0.51-0.84-0.765-1.845-0.765-2.984v-24.105
			c0-1.14,0.255-2.189,0.765-3.149c0.511-0.96,1.17-1.785,1.995-2.49c0.811-0.72,1.755-1.29,2.82-1.726
			c1.064-0.449,2.13-0.72,3.21-0.84s2.145-0.06,3.195,0.15c1.05,0.21,1.995,0.585,2.819,1.125c0.84,0.524,1.516,1.215,2.011,2.07
			C614.896,263.857,615.151,264.846,615.151,266.001z M609.361,289.341v-21.345c0-0.96-0.21-1.755-0.646-2.385
			c-0.42-0.646-1.199-0.945-2.354-0.885c-1.14,0.194-1.92,0.645-2.355,1.38c-0.42,0.734-0.63,1.574-0.63,2.52v21.36
			c0,0.944,0.21,1.74,0.63,2.385c0.436,0.646,1.216,0.93,2.355,0.885c1.155-0.194,1.935-0.66,2.354-1.38
			C609.151,291.142,609.361,290.301,609.361,289.341z"/>
		<polygon fill="#231F20" points="604.651,207.847 604.651,212.812 596.762,213.651 596.762,225.187 603.241,224.497 
			603.241,229.447 596.762,230.137 596.762,246.292 591.017,246.907 591.017,209.302 		"/>
		<polygon fill="#231F20" points="593.267,261.562 593.267,266.527 585.361,267.367 585.361,278.902 591.841,278.211 
			591.841,283.176 585.361,283.867 585.361,300.022 579.616,300.622 579.616,263.032 		"/>
		<path fill="#231F20" d="M573.286,227.542v21.271l-1.515,0.149l-1.275-1.68c-0.885,0.99-1.89,1.71-3.03,2.175
			c-1.125,0.465-2.279,0.75-3.449,0.885c-1.08,0.105-2.176,0.105-3.301-0.015c-1.109-0.135-2.1-0.405-2.984-0.81
			c-0.885-0.421-1.605-1.006-2.16-1.771c-0.555-0.75-0.84-1.71-0.84-2.85v-23.851c0-1.605,0.285-2.985,0.84-4.125
			c0.555-1.14,1.275-2.07,2.16-2.805s1.875-1.29,2.984-1.695c1.125-0.39,2.221-0.66,3.301-0.765c1.109-0.12,2.205-0.105,3.314,0.03
			c1.096,0.15,2.085,0.465,2.971,0.945c0.885,0.465,1.59,1.155,2.159,2.025c0.556,0.87,0.825,1.965,0.825,3.27v0.885l-5.835,0.63
			c0-1.125-0.285-1.89-0.87-2.295c-0.569-0.42-1.425-0.555-2.564-0.435c-0.69,0.075-1.261,0.225-1.726,0.48
			c-0.45,0.24-0.81,0.54-1.08,0.9c-0.255,0.345-0.435,0.75-0.54,1.215c-0.09,0.45-0.149,0.9-0.149,1.365v21.405
			c0,0.45,0.06,0.9,0.149,1.32c0.105,0.435,0.285,0.81,0.54,1.109c0.271,0.285,0.63,0.511,1.08,0.66
			c0.465,0.15,1.035,0.18,1.726,0.12c0.675-0.075,1.26-0.24,1.71-0.48c0.465-0.255,0.825-0.555,1.08-0.899
			c0.27-0.36,0.449-0.765,0.54-1.215c0.104-0.45,0.149-0.915,0.149-1.365v-8.205l-2.46,0.27v-4.965L573.286,227.542z"/>
		<polygon fill="#231F20" points="563.356,264.756 555.512,289.761 555.512,303.202 549.722,303.832 549.722,290.376 
			542.102,267.037 547.951,266.407 552.616,281.961 557.521,265.386 		"/>
		<polygon fill="#231F20" points="548.941,213.802 548.941,251.407 542.701,252.082 535.006,231.052 535.006,252.892 
			529.156,253.522 529.156,215.917 535.876,215.197 543.196,238.372 543.196,214.417 		"/>
		<path fill="#231F20" d="M535.682,290.211l4.064,14.686l-6.09,0.645l-3.57-13.365l-2.609,0.285v13.74l-5.79,0.615v-37.605
			l8.595-0.915c1.08-0.104,2.146-0.06,3.18,0.15c1.051,0.225,1.995,0.6,2.835,1.125c0.825,0.54,1.5,1.215,2.011,2.07
			c0.51,0.84,0.765,1.845,0.765,2.984v9.271c0,1.154-0.33,2.265-0.99,3.359C537.421,288.336,536.626,289.327,535.682,290.211z
			 M533.267,283.192v-6.615c0-0.465-0.045-0.915-0.136-1.335c-0.104-0.436-0.27-0.811-0.494-1.125c-0.24-0.33-0.54-0.555-0.931-0.72
			c-0.404-0.15-0.87-0.195-1.425-0.136l-2.805,0.301v13.845l2.805-0.3c1.11-0.12,1.89-0.57,2.325-1.335
			C533.057,285.006,533.267,284.152,533.267,283.192z"/>
		<polygon fill="#231F20" points="522.871,216.592 522.871,254.197 517.081,254.812 517.081,217.207 		"/>
		<path fill="#231F20" d="M511.427,270.322l5.939,36.96l-5.85,0.63l-1.275-10.035l-6.57,0.705l-1.274,10.305l-5.851,0.631
			l5.94-38.25L511.427,270.322z M509.461,293.017l-2.505-16.726l-2.444,17.25L509.461,293.017z"/>
		<polygon fill="#231F20" points="510.796,217.882 510.796,255.487 504.557,256.147 496.861,235.131 496.861,256.971 
			491.012,257.602 491.012,219.997 497.746,219.276 505.052,242.452 505.052,218.497 		"/>
		<polygon fill="#231F20" points="492.227,272.362 492.227,309.966 486.001,310.642 478.292,289.612 478.292,311.466 
			472.441,312.082 472.441,274.477 479.176,273.772 486.481,296.931 486.481,272.977 		"/>
		<path fill="#231F20" d="M482.131,243.426l4.065,14.686l-6.075,0.66l-3.585-13.365l-2.61,0.27v13.755l-5.79,0.615v-37.605
			l8.595-0.915c1.08-0.12,2.145-0.06,3.195,0.15c1.035,0.21,1.98,0.585,2.82,1.125c0.825,0.525,1.5,1.215,2.01,2.07
			c0.511,0.84,0.766,1.83,0.766,2.985v9.27c0,1.155-0.33,2.266-0.99,3.345C483.887,241.567,483.076,242.542,482.131,243.426z
			 M479.716,236.421v-6.63c0-0.45-0.045-0.9-0.135-1.335c-0.105-0.42-0.27-0.795-0.495-1.125c-0.225-0.315-0.54-0.555-0.93-0.705
			s-0.87-0.195-1.425-0.135l-2.805,0.285v13.845l2.805-0.3c1.11-0.12,1.89-0.555,2.325-1.32
			C479.506,238.237,479.716,237.367,479.716,236.421z"/>
		<polygon fill="#231F20" points="466.171,275.152 466.171,312.756 460.366,313.372 460.366,275.782 		"/>
		<path fill="#231F20" d="M457.876,223.537l5.94,36.975l-5.835,0.631l-1.275-10.035l-6.585,0.705l-1.275,10.305l-5.835,0.615
			l5.94-38.235L457.876,223.537z M455.911,246.232l-2.505-16.71l-2.445,17.25L455.911,246.232z"/>
		<path fill="#231F20" d="M455.312,284.767v1.515c0,0.915-0.045,1.86-0.12,2.835c-0.075,0.975-0.225,1.89-0.42,2.745
			c-0.195,0.854-0.465,1.62-0.81,2.295c-0.345,0.675-0.795,1.185-1.35,1.545c1.08,0.345,1.8,1.185,2.16,2.535
			c0.36,1.365,0.54,3.015,0.54,4.979c0,1.636-0.18,3.136-0.54,4.471c-0.36,1.35-0.855,2.534-1.5,3.524
			c-0.63,1.005-1.41,1.815-2.325,2.415c-0.915,0.601-1.935,0.96-3.045,1.08l-9.615,1.035v-37.605l8.64-0.93
			c1.11-0.104,2.175-0.015,3.18,0.285c1.02,0.3,1.905,0.78,2.655,1.425c0.75,0.66,1.365,1.485,1.815,2.46
			C455.042,282.367,455.281,283.492,455.312,284.767z M449.566,288.471v-1.484c0-0.51-0.045-1.065-0.135-1.65
			c-0.105-0.569-0.285-1.109-0.525-1.59c-0.24-0.479-0.555-0.87-0.93-1.17s-0.855-0.42-1.455-0.36l-2.505,0.271v11.58l2.505-0.271
			c0.6-0.06,1.08-0.27,1.455-0.645c0.375-0.36,0.69-0.811,0.93-1.32c0.24-0.525,0.42-1.08,0.525-1.68
			C449.521,289.551,449.566,288.997,449.566,288.471z M449.566,303.532c0-0.51-0.045-1.065-0.135-1.65
			c-0.105-0.569-0.285-1.109-0.525-1.59c-0.24-0.479-0.555-0.87-0.93-1.17s-0.855-0.42-1.455-0.36l-2.505,0.271v11.085l2.505-0.271
			c0.72-0.074,1.29-0.345,1.695-0.81c0.42-0.48,0.72-1.035,0.915-1.665c0.195-0.645,0.315-1.32,0.375-2.01
			C449.551,304.671,449.566,304.056,449.566,303.532z"/>
		<polygon fill="#231F20" points="439.426,258.112 439.426,263.122 425.776,264.577 425.776,226.972 439.426,225.517 
			439.426,230.467 431.521,231.322 431.521,242.857 438.001,242.167 438.001,247.117 431.521,247.806 431.521,258.952 		"/>
		<polygon fill="#231F20" points="431.011,301.207 431.011,306.202 415.996,307.822 415.996,302.812 		"/>
		<polygon fill="#231F20" points="421.306,260.046 421.306,265.056 407.611,266.527 407.611,228.921 413.401,228.292 
			413.401,260.886 		"/>
		<polygon fill="#231F20" points="408.721,281.301 408.721,318.907 402.496,319.567 394.786,298.551 394.786,320.392 
			388.951,321.022 388.951,283.417 395.671,282.697 402.991,305.872 402.991,281.917 		"/>
		<polygon fill="#231F20" points="390.631,263.332 390.631,268.341 376.981,269.796 376.981,232.191 390.631,230.737 
			390.631,235.687 382.726,236.542 382.726,248.077 389.206,247.386 389.206,252.336 382.726,253.027 382.726,264.171 		"/>
		<path fill="#231F20" d="M383.146,290.812v24.104c0,1.14-0.255,2.19-0.75,3.15c-0.51,0.944-1.185,1.785-2.01,2.489
			c-0.84,0.705-1.785,1.29-2.835,1.726c-1.035,0.435-2.1,0.72-3.18,0.84c-1.08,0.105-2.16,0.06-3.225-0.15
			c-1.065-0.21-2.01-0.585-2.82-1.125s-1.485-1.229-1.995-2.069c-0.495-0.84-0.75-1.846-0.75-2.985v-24.104
			c0-1.141,0.255-2.19,0.75-3.15c0.51-0.96,1.185-1.785,1.995-2.49c0.81-0.72,1.755-1.29,2.82-1.725
			c1.065-0.45,2.145-0.72,3.225-0.84c1.08-0.12,2.145-0.061,3.18,0.149c1.05,0.21,1.995,0.585,2.835,1.125
			c0.825,0.525,1.5,1.215,2.01,2.07C382.891,288.667,383.146,289.657,383.146,290.812z M377.356,314.152v-21.346
			c0-0.96-0.21-1.755-0.63-2.385c-0.435-0.645-1.215-0.944-2.355-0.885c-1.155,0.195-1.935,0.645-2.355,1.38
			c-0.435,0.735-0.645,1.575-0.645,2.521v21.359c0,0.945,0.21,1.74,0.645,2.385c0.42,0.646,1.2,0.931,2.355,0.87
			c1.14-0.18,1.92-0.645,2.355-1.38C377.146,315.952,377.356,315.112,377.356,314.152z"/>
		<polygon fill="#231F20" points="372.661,232.657 365.446,271.027 357.886,271.836 350.671,235.011 356.851,234.352 
			361.667,264.216 366.466,233.316 		"/>
		<polygon fill="#231F20" points="359.792,286.537 359.792,324.142 353.551,324.801 345.841,303.787 345.841,325.626 
			340.006,326.256 340.006,288.652 346.726,287.931 354.046,311.107 354.046,287.152 		"/>
		<polygon fill="#231F20" points="346.351,235.461 346.351,273.067 340.546,273.697 340.546,236.091 		"/>
		<polygon fill="#231F20" points="335.251,236.647 335.251,241.612 330.301,242.136 330.301,274.792 324.556,275.407 
			324.556,242.751 319.636,243.277 319.636,238.327 		"/>
		<path fill="#231F20" d="M323.011,297.681v23.115c-0.12,1.17-0.45,2.221-0.975,3.15c-0.525,0.945-1.185,1.77-1.965,2.49
			c-0.78,0.734-1.68,1.305-2.67,1.739c-1.005,0.436-2.04,0.705-3.12,0.825l-8.1,0.87v-37.604l8.1-0.87
			c1.08-0.12,2.115-0.061,3.12,0.165c0.99,0.21,1.89,0.6,2.67,1.125c0.78,0.54,1.44,1.229,1.965,2.085
			C322.562,295.612,322.891,296.586,323.011,297.681z M317.266,320.046v-20.385c0-0.45-0.045-0.9-0.135-1.335
			c-0.105-0.42-0.27-0.795-0.495-1.125c-0.225-0.315-0.54-0.555-0.93-0.705c-0.39-0.15-0.87-0.195-1.425-0.135l-2.355,0.24v27.645
			l2.355-0.255c1.11-0.12,1.89-0.57,2.325-1.35C317.056,321.862,317.266,320.992,317.266,320.046z"/>
		<path fill="#231F20" d="M312.331,239.107l5.94,36.975l-5.85,0.615l-1.275-10.021l-6.57,0.705l-1.275,10.29l-5.85,0.63l5.94-38.234
			L312.331,239.107z M310.366,261.801l-2.505-16.725l-2.46,17.25L310.366,261.801z"/>
		<polygon fill="#231F20" points="299.896,292.942 299.896,330.532 293.656,331.207 285.946,310.176 285.946,332.032 
			280.111,332.647 280.111,295.056 286.831,294.336 294.151,317.511 294.151,293.542 		"/>
		<path fill="#231F20" d="M290.536,263.917l4.065,14.686l-6.09,0.659l-3.57-13.364l-2.61,0.27v13.755l-5.79,0.615v-37.605
			l8.595-0.914c1.08-0.12,2.145-0.075,3.18,0.149c1.05,0.21,1.995,0.585,2.835,1.125c0.825,0.525,1.5,1.215,2.01,2.055
			c0.51,0.855,0.75,1.846,0.75,3v9.271c0,1.14-0.315,2.265-0.975,3.345C292.276,262.042,291.481,263.032,290.536,263.917z
			 M288.121,256.912v-6.63c0-0.45-0.045-0.9-0.15-1.335c-0.09-0.436-0.255-0.811-0.48-1.125c-0.225-0.315-0.54-0.555-0.93-0.705
			c-0.405-0.15-0.87-0.21-1.425-0.15l-2.805,0.301v13.845l2.805-0.3c1.11-0.12,1.89-0.556,2.325-1.32
			C287.911,258.727,288.121,257.857,288.121,256.912z"/>
		<path fill="#231F20" d="M269.851,296.152l5.94,36.96l-5.835,0.63l-1.29-10.021l-6.57,0.69l-1.275,10.305l-5.85,0.63l5.94-38.25
			L269.851,296.152z M267.886,318.846l-2.505-16.725l-2.445,17.25L267.886,318.846z"/>
		<path fill="#231F20" d="M270.751,250.327v24.104c0,1.141-0.255,2.19-0.765,3.15c-0.51,0.96-1.17,1.785-2.01,2.49
			c-0.84,0.72-1.785,1.29-2.82,1.725c-1.05,0.45-2.115,0.721-3.195,0.84c-1.08,0.12-2.16,0.061-3.21-0.149
			c-1.065-0.21-2.01-0.585-2.835-1.125c-0.81-0.525-1.47-1.215-1.98-2.07c-0.51-0.84-0.765-1.83-0.765-2.985v-24.104
			c0-1.14,0.255-2.19,0.765-3.15c0.51-0.944,1.17-1.784,1.98-2.489c0.825-0.705,1.77-1.29,2.835-1.726
			c1.05-0.435,2.13-0.72,3.21-0.84c1.08-0.104,2.145-0.06,3.195,0.15c1.035,0.225,1.98,0.6,2.82,1.125
			c0.84,0.54,1.5,1.215,2.01,2.069C270.496,248.181,270.751,249.187,270.751,250.327z M264.961,273.681v-21.359
			c0-0.945-0.225-1.74-0.645-2.385c-0.42-0.646-1.215-0.931-2.355-0.886c-1.14,0.195-1.935,0.66-2.355,1.38
			c-0.435,0.735-0.645,1.575-0.645,2.535v21.346c0,0.96,0.21,1.755,0.645,2.385c0.42,0.645,1.215,0.945,2.355,0.885
			c1.14-0.195,1.935-0.645,2.355-1.38S264.961,274.626,264.961,273.681z"/>
		<path fill="#231F20" d="M248.611,254.362v1.53c0,0.914-0.045,1.859-0.12,2.835c-0.09,0.975-0.225,1.89-0.42,2.744
			c-0.195,0.855-0.465,1.62-0.81,2.296c-0.345,0.675-0.795,1.185-1.35,1.529c1.08,0.346,1.8,1.2,2.16,2.55
			c0.36,1.351,0.54,3.016,0.54,4.98c0,1.635-0.18,3.12-0.54,4.47c-0.36,1.351-0.855,2.521-1.5,3.525s-1.41,1.8-2.325,2.415
			c-0.93,0.6-1.935,0.96-3.045,1.08l-9.63,1.035v-37.605l8.64-0.93c1.11-0.12,2.175-0.03,3.195,0.27c1.005,0.3,1.89,0.78,2.655,1.44
			c0.75,0.66,1.35,1.47,1.815,2.46C248.326,251.961,248.581,253.086,248.611,254.362z M242.866,258.067v-1.471
			c0-0.524-0.045-1.079-0.15-1.649c-0.09-0.585-0.27-1.11-0.51-1.59c-0.255-0.48-0.555-0.87-0.93-1.186
			c-0.39-0.3-0.87-0.42-1.455-0.359l-2.505,0.27v11.595l2.505-0.27c0.585-0.061,1.065-0.285,1.455-0.646
			c0.375-0.375,0.675-0.81,0.93-1.335c0.24-0.51,0.42-1.064,0.51-1.665C242.821,259.162,242.866,258.591,242.866,258.067z
			 M242.866,273.142c0-0.525-0.045-1.08-0.15-1.65c-0.09-0.585-0.27-1.11-0.51-1.59c-0.255-0.48-0.555-0.87-0.93-1.186
			c-0.39-0.3-0.87-0.42-1.455-0.359l-2.505,0.27v11.101l2.505-0.271c0.72-0.075,1.29-0.345,1.695-0.825
			c0.405-0.465,0.705-1.02,0.9-1.665c0.21-0.645,0.33-1.305,0.375-1.995C242.836,274.267,242.866,273.667,242.866,273.142z"/>
		<path fill="#231F20" d="M221.312,248.841l5.94,36.96l-5.835,0.63l-1.275-10.02l-6.585,0.705l-1.275,10.29l-5.835,0.63l5.94-38.25
			L221.312,248.841z M219.346,271.537l-2.505-16.725l-2.445,17.25L219.346,271.537z"/>
		<polygon fill="#231F20" points="202.951,283.402 202.951,288.412 189.256,289.867 189.256,252.261 195.046,251.647 
			195.046,284.242 		"/>
		<polygon fill="#231F20" points="184.786,285.336 184.786,290.346 171.091,291.817 171.091,254.211 176.896,253.582 
			176.896,286.192 		"/>
		<path fill="#231F20" d="M165.301,261.607v24.104c0,1.141-0.255,2.19-0.765,3.15c-0.495,0.944-1.17,1.785-2.01,2.49
			c-0.825,0.704-1.77,1.29-2.82,1.725c-1.05,0.435-2.115,0.72-3.195,0.84c-1.08,0.105-2.145,0.061-3.21-0.149
			c-1.065-0.211-2.01-0.586-2.82-1.125c-0.825-0.54-1.485-1.23-1.995-2.07c-0.51-0.84-0.75-1.845-0.75-2.985v-24.104
			c0-1.141,0.24-2.19,0.75-3.15c0.51-0.96,1.17-1.785,1.995-2.49c0.81-0.72,1.755-1.29,2.82-1.725c1.065-0.45,2.13-0.72,3.21-0.84
			s2.145-0.061,3.195,0.149c1.05,0.21,1.995,0.585,2.82,1.125c0.84,0.525,1.515,1.216,2.01,2.07
			C165.046,259.461,165.301,260.452,165.301,261.607z M159.511,284.947v-21.345c0-0.96-0.21-1.756-0.645-2.4
			c-0.42-0.63-1.2-0.93-2.355-0.87c-1.14,0.195-1.92,0.646-2.355,1.38c-0.42,0.735-0.63,1.575-0.63,2.521v21.359
			c0,0.945,0.21,1.74,0.63,2.386c0.435,0.645,1.215,0.93,2.355,0.869c1.155-0.18,1.935-0.645,2.355-1.38
			C159.301,286.747,159.511,285.907,159.511,284.947z"/>
		<path fill="#231F20" d="M142.921,290.452v4.515c-0.105,0.075-0.3,0.165-0.585,0.271c-0.27,0.09-0.66,0.18-1.155,0.27
			c-0.51,0.075-1.215,0.181-2.085,0.271c-2.325,0.24-4.305-0.09-5.925-0.99s-2.925-2.22-3.93-3.945
			c-0.99-1.725-1.71-3.765-2.16-6.104c-0.435-2.34-0.66-4.83-0.66-7.44c0-3.045,0.345-5.76,1.035-8.16
			c0.69-2.399,1.59-4.455,2.7-6.18s2.385-3.075,3.81-4.035c1.41-0.975,2.88-1.545,4.38-1.71c0.795-0.075,1.62-0.104,2.505-0.09
			c0.885,0.015,1.575,0.09,2.07,0.195v4.859c-0.465-0.045-1.02-0.06-1.695-0.029c-0.675,0.015-1.2,0.045-1.59,0.09
			c-1.41,0.149-2.595,0.705-3.54,1.68c-0.945,0.96-1.725,2.146-2.31,3.54c-0.585,1.38-1.005,2.88-1.245,4.47
			c-0.255,1.605-0.375,3.105-0.375,4.516c0,2.055,0.165,4.005,0.495,5.835s0.81,3.404,1.47,4.725s1.47,2.34,2.46,3.045
			c0.975,0.721,2.145,1.005,3.48,0.855c0.39-0.03,0.87-0.09,1.425-0.165C142.051,290.662,142.531,290.556,142.921,290.452z"/>
	</g>
	<g>
	</g>
</g>
</svg>
