<?xml version="1.0" encoding="utf-8"?>
<!-- Generator: Adobe Illustrator 19.0.0, SVG Export Plug-In . SVG Version: 6.00 Build 0)  -->
<svg version="1.1" id="Capa_1" xmlns="http://www.w3.org/2000/svg" xmlns:xlink="http://www.w3.org/1999/xlink" x="0px" y="0px"
	 viewBox="-93.5 340.4 141 113.2" style="enable-background:new -93.5 340.4 141 113.2;" xml:space="preserve">
<g>
	<g>
		<path d="M-7,341.4c-29.3-3.7-70.1,1.2-82.7,32.9c-5.3,13.2-6.4,32,5.6,42.5c14.2,12.3,32.8,9.9,50.3,10.5l0,0
			c0.4,8.1,2.8,16.6,5.2,24.1c0.8,2.6,3.9,2.8,5.5,0.7c3.1-4.1,4.4-9.4,5.8-14.3c0.7-2.5,2.4-6.4,2.3-9.4c0.3,0,0.7,0,1.1-0.1
			c23.5-8.6,57.1-0.2,61.1-33.2C51,363.7,20.1,344.8-7,341.4z M38.3,405.2c-7.3,16.6-39.2,11.5-53.8,17c-1.6,0.6-2.2,2-2.1,3.3
			c-3.7,0.6-4.1,5.2-4.8,8.2c-0.7,2.8-1.3,5.6-2.3,8.4c-1.6-6.4-2.9-12.9-5.5-18.8c-0.6-1.3-2.2-1.1-3-0.1
			c-10.2-2.4-20-2.5-30.3-3.9c-30.5-4.2-26-37.9-11.9-54.9c16.2-19.5,49.2-20,72.1-16.2C22.5,352.7,51.3,375.7,38.3,405.2z"/>
		<path d="M-48.3,372.1c-0.8-2.1-3.7-2.8-5-0.6c-2.5,4.1-1.8,10.8-2,15.4c-0.2,2.5-0.3,5.3-0.5,8c-2.5,0.4-5,0.6-7.6,0.8
			c0-2.1,0-4.1,0-6.1c0-3.4,0.1-6.8,0.3-10.1c0-1.5,0.2-2.9,0.5-4.4c0.4-2.1,0.9-1.5-0.5-0.9c1.7-0.9,1.8-3.8,0-4.6
			c-10.6-4.8-6.2,33.6-5.9,38.5c0.2,3.5,5.2,3.5,5.4,0c0.1-2.6,0.1-5.1,0.1-7.6c2.5,0.1,5,0.2,7.6,0.1c0.1,2.8,0.5,5.4,1.2,7.8
			c0.3,0.9,1.1,1.9,2.2,2.2c1,0.2,2.2,0.1,3-0.5c0.6-0.5,0.7-1.1,0.4-1.6c0.5-1.9,0.2-3.9,0-6.1c-0.1-4.2,0-8.5,0.2-12.8
			C-48.4,384.4-46.4,377.1-48.3,372.1z"/>
		<path d="M-30.9,372.6c0-0.1-0.2-0.2-0.2-0.3c-0.8-1.2-1.8-1.5-3.2-1.3c-1.6,0.2-3.2,0.2-4.9,0.4c-0.8-0.5-2-0.2-2.3,0.7
			c-0.8,0.6-0.9,1.8-0.5,2.6c-1.8,11.2-2,23.1-2,34.3c0,1.8,1.5,2.9,3.1,3.1c4.2,0.5,9.9-0.3,9.5-5.8c-0.1-1.7-1.8-2.9-3.5-2
			c-1.2,0.7-2,1.2-2.9,1.4c0-2,0.1-4,0.2-6c0.7,0.1,1.4,0.1,2,0.2c1.4,0.2,2.3-0.1,3.2-1.3l0-0.1c0.5-0.6,0.5-2.1,0-2.7l0-0.1
			c-0.8-1.1-1.8-1.5-3.2-1.3c-0.6,0.1-1.2,0.1-1.9,0.2c0.2-6.2,0.2-12.5-0.5-18.6c1.2,0.1,2.5,0.1,3.6,0.3c1.3,0.2,2.3-0.1,3.2-1.3
			c0-0.1,0.2-0.2,0.2-0.3C-30.5,374.3-30.5,373.2-30.9,372.6z"/>
		<path d="M-15.8,403.6c-1.3-0.4-2.7-0.6-4-0.9c-0.2-9.6-0.8-19.4-2-29c-0.3-2.6-3.8-2.6-4.1,0c-1.2,10.5-0.3,21.2-0.3,31.6
			c0,1.4,1,2.7,2.3,3.1c2.7,0.8,5.2,1.4,7.9,0.6C-13.1,408.3-13.2,404.4-15.8,403.6z"/>
		<path d="M-1.7,405.8c-0.7,0.3-1.2,0.7-1.7,1c0.1-10.9,0.3-22-2.2-32.6c-0.5-2.1-3.8-1.6-3.8,0.5c0.3,11.8-0.2,23.5-0.4,35.3
			c0,1.5,1,2.6,2.3,3.1c4,1.5,7.8,0.7,9.6-3.5C3.2,407,1,404.5-1.7,405.8z"/>
		<path d="M16.9,375.8c-1.9-2.7-6-1-5.9,1.6c-0.1,0-0.2,0-0.3,0c-1.4,0-2.1,1.2-2.7,2.2c-1.9,3.4-2.9,7.6-3.8,11.3
			c-1.4,6-3.2,15.9,3.2,19.6c7.4,4.3,12.3-5.4,13.1-11.1C21.6,392.5,21.3,381.8,16.9,375.8z M13.9,401c-0.3,1.2-2.3,5.7-3.9,3.2
			c-2.5-4,0.1-12.1,1-16.2c0.5-2.1,1.1-4.3,1.7-6.4c0-0.1,0-0.1,0.1-0.2c1.4,3.5,1.8,7.8,1.9,11.2C14.8,395.4,14.6,398.3,13.9,401z"
			/>
	</g>
</g>
</svg>
