<?xml version="1.0" encoding="utf-8"?>
<!-- Generator: Adobe Illustrator 16.0.4, SVG Export Plug-In . SVG Version: 6.00 Build 0)  -->
<!DOCTYPE svg PUBLIC "-//W3C//DTD SVG 1.1//EN" "http://www.w3.org/Graphics/SVG/1.1/DTD/svg11.dtd">
<svg version="1.1" id="Capa_1" xmlns="http://www.w3.org/2000/svg" xmlns:xlink="http://www.w3.org/1999/xlink" x="0px" y="0px"
	 width="132.891px" height="120.324px" viewBox="413.555 219.838 132.891 120.324"
	 enable-background="new 413.555 219.838 132.891 120.324" xml:space="preserve">
<g>
	<path fill="#010002" d="M513.987,250.889c-0.118,0-0.083-0.323-0.04-0.729c0.024-0.243,0.04-0.491,0.04-0.741v-1.405
		c0-3.987-3.232-7.219-7.22-7.219h-1.15c-3.987,0-7.22-3.232-7.22-7.219v-6.517c0-3.988-3.231-7.219-7.22-7.219h-22.361
		c-3.987,0-7.219,3.231-7.219,7.219v6.517c0,3.987-3.232,7.219-7.219,7.219h-1.15c-3.988,0-7.22,3.232-7.22,7.219v1.405
		c0,0.25,0.013,0.499,0.039,0.741c0.044,0.407,0.079,0.729,0.039,0.729c-0.075,0-25.312,0-25.312,0c-3.987,0-7.22,3.231-7.22,7.219
		v74.835c0,3.987,3.233,7.219,7.22,7.219h118.45c3.988,0,7.221-3.231,7.221-7.219v-74.835c0-3.988-3.232-7.219-7.221-7.219H513.987z
		 M479.995,228.737c5.249,0,9.501,4.252,9.501,9.501c0,5.249-4.252,9.501-9.501,9.501s-9.5-4.252-9.5-9.501
		C470.495,232.989,474.746,228.737,479.995,228.737z M535.441,322.137c0,3.612-2.928,6.545-6.544,6.545h-97.804
		c-3.615,0-6.543-2.93-6.543-6.545v-50.838c0-3.614,2.929-6.543,6.543-6.543H528.9c3.613,0,6.542,2.929,6.542,6.543L535.441,322.137
		L535.441,322.137z"/>
</g>
</svg>
