<?xml version="1.0" encoding="utf-8"?>
<!-- Generator: Adobe Illustrator 16.0.4, SVG Export Plug-In . SVG Version: 6.00 Build 0)  -->
<!DOCTYPE svg PUBLIC "-//W3C//DTD SVG 1.1//EN" "http://www.w3.org/Graphics/SVG/1.1/DTD/svg11.dtd">
<svg version="1.1" id="Capa_1" xmlns="http://www.w3.org/2000/svg" xmlns:xlink="http://www.w3.org/1999/xlink" x="0px" y="0px"
	 width="150.433px" height="201.602px" viewBox="404.784 179.201 150.433 201.602"
	 enable-background="new 404.784 179.201 150.433 201.602" xml:space="preserve">
<g>
	<path fill="#010002" d="M447.331,292.793c6.798,22.586,8.458,46.449,7.404,69.918c-0.14,2.859,3.762,1.049,3.853-1.035
		c1.079-23.773-0.539-48.018-7.427-70.9C450.403,288.268,446.749,290.843,447.331,292.793z M509.186,313.174
		c1.678,6.003,0.49,12.183,0.848,18.314c0.473,8.195,5.496,14.49,11.626,19.5c0.376-1.192,0.776-2.38,1.169-3.567
		c-5.609,2.435-14.618,6.47-14.139,13.977c0.416,6.464,5.349,11.092,4.191,17.979c-0.479,2.781,3.508,0.977,3.854-1.029
		c0.885-5.143-0.812-9.554-2.859-14.176c-0.83-1.878-1.721-3.95-1.098-6.004c1.127-3.678,7.623-5.816,10.682-7.155
		c1.098-0.478,2.381-2.587,1.162-3.567c-6.294-5.162-10.596-11.105-10.837-19.43c-0.164-5.7,0.8-11.256-0.782-16.854
		C512.307,308.642,508.646,311.216,509.186,313.174z M510.597,200.023c-24.626,0-44.612,25.39-44.612,56.718
		c0,31.313,33.277,58.982,44.612,58.982c11.353,0,44.62-27.662,44.62-58.982C555.217,225.413,535.242,200.023,510.597,200.023z
		 M522.355,217.235l8.227-3.708c25.197,26.553,6.283,46.933,6.283,46.933C545.518,235.755,522.355,217.235,522.355,217.235z
		 M453.935,291.781h-6.028c0,0-1.024,5.684-3.702,7.41c-2.671,1.732,7.639-4.029,11.85-0.158
		C455.322,298.391,452.735,295.78,453.935,291.781z M456.055,299.033c0.121,0.109,0.193,0.158,0.193,0.158
		C456.182,299.137,456.109,299.094,456.055,299.033z M516.152,311.853h-6.021c0,0-1.029,5.677-3.697,7.409
		c-2.682,1.732,7.635-4.028,11.839-0.151C517.539,318.45,514.959,315.846,516.152,311.853z M518.268,319.104
		c0.126,0.097,0.199,0.151,0.199,0.151C518.406,319.201,518.34,319.159,518.268,319.104z M485.982,203.471
		c-8.069-14.667-21.434-24.27-36.585-24.27c-24.639,0-44.613,25.39-44.613,56.711s33.272,58.983,44.613,58.983
		c4.422,0,12.189-4.222,20.016-11.227c-5.264-8.681-8.917-18.616-8.917-28.958C460.496,232.096,470.916,212.577,485.982,203.471z
		 M431.404,208.402c-0.412,0.431-0.818,0.867-1.224,1.315c-0.799,0.896-1.582,1.83-2.332,2.781
		c-1.515,1.908-2.902,3.914-4.175,5.998c-2.538,4.168-4.537,8.682-5.628,13.443c-1.09,4.75-1.181,9.766-0.012,14.637
		c1.145,4.871,3.562,9.512,6.749,13.601c-3.762-3.562-6.961-7.888-8.978-12.88c-2.042-4.979-2.812-10.553-2.399-16.03
		c0.394-5.489,1.872-10.869,3.98-15.927c1.054-2.539,2.272-5.004,3.635-7.397c0.685-1.2,1.4-2.374,2.157-3.538
		c0.388-0.587,0.77-1.157,1.175-1.739c0.424-0.588,0.806-1.127,1.327-1.775l6.919,6.337
		C432.246,207.536,431.792,207.984,431.404,208.402z"/>
</g>
</svg>
